<svg width="24" height="24" viewBox="0 0 24 24" fill="none" xmlns="http://www.w3.org/2000/svg">
<path d="M11.25 7.05566C8.84437 7.41753 7 9.49327 7 11.9998C7 14.7612 9.23858 16.9998 12 16.9998C14.7614 16.9998 17 14.7612 17 11.9998C17 9.49327 15.1556 7.41753 12.75 7.05566V10.9998C12.75 11.414 12.4142 11.7498 12 11.7498C11.5858 11.7498 11.25 11.414 11.25 10.9998V7.05566Z" fill="#1C274C"/>
<path d="M13 3.5C13 4.05228 12.5523 4.5 12 4.5C11.4477 4.5 11 4.05228 11 3.5C11 2.94772 11.4477 2.5 12 2.5C12.5523 2.5 13 2.94772 13 3.5Z" fill="#1C274C"/>
<path d="M20.5 13C19.9477 13 19.5 12.5523 19.5 12C19.5 11.4477 19.9477 11 20.5 11C21.0523 11 21.5 11.4477 21.5 12C21.5 12.5523 21.0523 13 20.5 13Z" fill="#1C274C"/>
<path d="M3.5 13C2.94772 13 2.5 12.5523 2.5 12C2.5 11.4477 2.94772 11 3.5 11C4.05228 11 4.5 11.4477 4.5 12C4.5 12.5523 4.05228 13 3.5 13Z" fill="#1C274C"/>
<path d="M6.69673 5.28264C7.08726 5.67316 7.08726 6.30633 6.69673 6.69685C6.30621 7.08738 5.67304 7.08738 5.28252 6.69685C4.89199 6.30633 4.89199 5.67316 5.28252 5.28264C5.67304 4.89212 6.30621 4.89212 6.69673 5.28264Z" fill="#1C274C"/>
<path d="M18.7175 17.3036C19.108 17.6942 19.108 18.3273 18.7175 18.7178C18.327 19.1084 17.6938 19.1084 17.3033 18.7178C16.9127 18.3273 16.9127 17.6942 17.3033 17.3036C17.6938 16.9131 18.327 16.9131 18.7175 17.3036Z" fill="#1C274C"/>
<path d="M18.7175 6.69685C18.327 7.08738 17.6938 7.08738 17.3033 6.69685C16.9127 6.30633 16.9127 5.67316 17.3033 5.28264C17.6938 4.89212 18.327 4.89212 18.7175 5.28264C19.108 5.67316 19.108 6.30633 18.7175 6.69685Z" fill="#1C274C"/>
<path d="M6.69673 18.7174C6.30621 19.1079 5.67304 19.1079 5.28252 18.7174C4.89199 18.3268 4.89199 17.6937 5.28252 17.3031C5.67304 16.9126 6.30621 16.9126 6.69673 17.3031C7.08726 17.6937 7.08726 18.3268 6.69673 18.7174Z" fill="#1C274C"/>
</svg>
