<svg width="23" height="23" viewBox="0 0 23 23" fill="none" xmlns="http://www.w3.org/2000/svg">
<path d="M9.0989 3.03297H13.1429C16.9555 3.03297 18.8619 3.03297 20.0463 4.21741C20.8991 5.07022 21.1379 6.29727 21.2048 8.34066H1.03699C1.10385 6.29727 1.34263 5.07022 2.19544 4.21741C3.37988 3.03297 5.28622 3.03297 9.0989 3.03297Z" fill="white"/>
<path fill-rule="evenodd" clip-rule="evenodd" d="M21.2303 11.9474L20.8173 11.5344C19.9289 10.646 18.4887 10.646 17.6003 11.5344L16.7901 12.3446C16.4668 11.4821 15.6348 10.8681 14.6593 10.8681C13.403 10.8681 12.3846 11.8866 12.3846 13.1429V14.9261C11.8893 14.9811 11.4087 15.1986 11.0289 15.5783C10.1406 16.4667 10.1406 17.907 11.0289 18.7953L11.4424 19.2088H9.0989C5.28622 19.2088 3.37988 19.2088 2.19544 18.0243C1.01099 16.8399 1.01099 14.9336 1.01099 11.1209C1.01099 10.6741 1.01099 10.2535 1.0129 9.85714H21.2289C21.2308 10.2535 21.2308 10.6741 21.2308 11.1209C21.2308 11.4069 21.2308 11.6823 21.2303 11.9474ZM5.05495 14.4066C4.63618 14.4066 4.2967 14.7461 4.2967 15.1648C4.2967 15.5836 4.63618 15.9231 5.05495 15.9231H9.0989C9.51767 15.9231 9.85714 15.5836 9.85714 15.1648C9.85714 14.7461 9.51767 14.4066 9.0989 14.4066H5.05495Z" fill="white"/>
<path fill-rule="evenodd" clip-rule="evenodd" d="M14.6593 12.3846C15.0781 12.3846 15.4176 12.7241 15.4176 13.1429V17.3782L16.1452 16.6507C16.4413 16.3545 16.9214 16.3545 17.2175 16.6507C17.5136 16.9468 17.5136 17.4269 17.2175 17.723L15.1955 19.7449C14.8994 20.0411 14.4193 20.0411 14.1232 19.7449L12.1012 17.723C11.8051 17.4269 11.8051 16.9468 12.1012 16.6507C12.3973 16.3545 12.8774 16.3545 13.1735 16.6507L13.9011 17.3782V13.1429C13.9011 12.7241 14.2406 12.3846 14.6593 12.3846ZM18.6726 12.6067C18.9687 12.3106 19.4488 12.3106 19.7449 12.6067L21.7669 14.6287C22.063 14.9248 22.063 15.4049 21.7669 15.701C21.4708 15.9971 20.9907 15.9971 20.6946 15.701L19.967 14.9734V19.2088C19.967 19.6276 19.6276 19.967 19.2088 19.967C18.79 19.967 18.4505 19.6276 18.4505 19.2088V14.9734L17.723 15.701C17.4269 15.9971 16.9468 15.9971 16.6507 15.701C16.3545 15.4049 16.3545 14.9248 16.6507 14.6287L18.6726 12.6067Z" fill="white"/>
</svg>
