<svg width="24" height="24" viewBox="0 0 24 24" fill="none" xmlns="http://www.w3.org/2000/svg">
<g clip-path="url(#clip0_8_4743)">
<path d="M22.6499 14.39L11.9999 22.13L1.3499 14.39C1.20713 14.285 1.10122 14.1375 1.04733 13.9687C0.99345 13.7999 0.994348 13.6183 1.0499 13.45L2.2699 9.67001L4.7099 2.16001C4.73357 2.09881 4.77124 2.04402 4.8199 2.00001C4.89914 1.92763 5.00258 1.8875 5.1099 1.8875C5.21722 1.8875 5.32066 1.92763 5.3999 2.00001C5.45128 2.04967 5.48914 2.11163 5.5099 2.18001L7.9499 9.67001H16.0499L18.4899 2.16001C18.5136 2.09881 18.5512 2.04402 18.5999 2.00001C18.6791 1.92763 18.7826 1.8875 18.8899 1.8875C18.9972 1.8875 19.1007 1.92763 19.1799 2.00001C19.2313 2.04967 19.2691 2.11163 19.2899 2.18001L21.7299 9.69001L22.9999 13.45C23.0504 13.6235 23.0437 13.8086 22.9806 13.978C22.9176 14.1473 22.8016 14.2918 22.6499 14.39V14.39Z" stroke="black" stroke-width="2" stroke-linecap="round" stroke-linejoin="round"/>
</g>
<defs>
<clipPath id="clip0_8_4743">
<rect width="24" height="24" fill="white"/>
</clipPath>
</defs>
</svg>
