<svg width="24" height="24" viewBox="0 0 24 24" fill="none" xmlns="http://www.w3.org/2000/svg">
<path d="M12.7071 12.7067C12.3166 13.0972 11.6834 13.0972 11.2929 12.7067C10.9024 12.3161 10.9024 11.683 11.2929 11.2924C11.6834 10.9019 12.3166 10.9019 12.7071 11.2924C13.0976 11.683 13.0976 12.3161 12.7071 12.7067Z" fill="#26282B"/>
<path d="M9.87867 8.46401C9.48814 8.85453 8.85498 8.85453 8.46446 8.46401C8.07393 8.07349 8.07393 7.44032 8.46446 7.0498C8.85498 6.65927 9.48814 6.65927 9.87867 7.0498C10.2692 7.44032 10.2692 8.07349 9.87867 8.46401Z" fill="#26282B"/>
<path d="M16.9497 15.5351C16.5592 15.9256 15.926 15.9256 15.5355 15.5351C15.145 15.1446 15.145 14.5114 15.5355 14.1209C15.926 13.7303 16.5592 13.7303 16.9497 14.1209C17.3403 14.5114 17.3403 15.1446 16.9497 15.5351Z" fill="#26282B"/>
<path fill-rule="evenodd" clip-rule="evenodd" d="M8.10421 4.31648C7.1536 4.15399 6.5866 4.33146 6.28924 4.62882C6.06618 4.85188 5.91197 5.21823 5.91583 5.79791C5.91972 6.38136 6.08644 7.11883 6.43683 7.97123C7.13629 9.67276 8.50909 11.6904 10.4091 13.5904C12.3091 15.4904 14.3268 16.8632 16.0283 17.5627C16.8807 17.9131 17.6182 18.0798 18.2016 18.0837C18.7813 18.0876 19.1477 17.9334 19.3707 17.7103C19.6681 17.4129 19.8455 16.8459 19.6831 15.8953C19.5566 15.1556 19.2354 14.2744 18.7236 13.3121C18.5174 13.4188 18.2597 13.4845 17.9626 13.4312C17.2418 13.3018 15.8859 12.7035 13.591 10.4086C11.296 8.11359 10.6978 6.75769 10.5684 6.03692C10.515 5.73983 10.5807 5.48213 10.6874 5.27594C9.72517 4.76414 8.84395 4.44292 8.10421 4.31648ZM11.8357 4.19702C10.6153 3.49688 9.42227 3.02002 8.35694 2.83792C7.19063 2.63856 6.02359 2.77315 5.22858 3.56816C4.63668 4.16005 4.41025 4.96581 4.41586 5.80791C4.42145 6.64625 4.65432 7.58024 5.04948 8.54153C5.84112 10.4673 7.3432 12.6459 9.34844 14.6511C11.3537 16.6563 13.5322 18.1584 15.458 18.9501C16.4193 19.3452 17.3533 19.5781 18.1916 19.5837C19.0337 19.5893 19.8395 19.3629 20.4314 18.771C21.2264 17.9759 21.361 16.8089 21.1616 15.6426C20.9795 14.5773 20.5027 13.3843 19.8025 12.1638C21.1906 10.0393 20.9518 7.16277 19.0861 5.29705L18.7025 4.91346C16.8368 3.04774 13.9602 2.80892 11.8357 4.19702ZM12.0794 5.91113C12.2071 6.33085 12.7101 7.40634 14.6516 9.34789C16.5932 11.2894 17.6687 11.7924 18.0884 11.9201C19.5789 10.3619 19.5579 7.89022 18.0254 6.35771L17.6418 5.97412C16.1093 4.4416 13.6377 4.42061 12.0794 5.91113ZM4.75214 10.7621C5.04504 11.055 5.04504 11.5299 4.75214 11.8228L2.63082 13.9441C2.33793 14.237 1.86306 14.237 1.57016 13.9441C1.27727 13.6512 1.27727 13.1763 1.57016 12.8834L3.69148 10.7621C3.98438 10.4692 4.45925 10.4692 4.75214 10.7621ZM8.28768 15.7119C8.58057 16.0047 8.58057 16.4796 8.28768 16.7725L4.16636 20.8938C3.87347 21.1867 3.39859 21.1867 3.1057 20.8938C2.81281 20.6009 2.81281 20.1261 3.1057 19.8332L7.22702 15.7119C7.51991 15.419 7.99479 15.419 8.28768 15.7119ZM13.2374 19.2474C13.5303 19.5403 13.5303 20.0152 13.2374 20.3081L11.1161 22.4294C10.8232 22.7223 10.3483 22.7223 10.0554 22.4294C9.76255 22.1365 9.76255 21.6616 10.0554 21.3687L12.1768 19.2474C12.4697 18.9545 12.9445 18.9545 13.2374 19.2474Z" fill="#26282B"/>
</svg>
