<svg width="24" height="24" viewBox="0 0 24 24" fill="none" xmlns="http://www.w3.org/2000/svg">
<path fill-rule="evenodd" clip-rule="evenodd" d="M14.3941 3.06575C11.9587 2.41319 9.49128 2.79536 7.4554 3.94395C7.09464 4.14748 6.63719 4.02002 6.43366 3.65926C6.23013 3.2985 6.35758 2.84105 6.71834 2.63752C9.08235 1.30381 11.9525 0.858624 14.7823 1.61686C20.5171 3.15349 23.9203 9.04811 22.3837 14.7829C20.8471 20.5176 14.9525 23.9209 9.21771 22.3843C3.48295 20.8476 0.0796857 14.953 1.61631 9.21826C1.92057 8.08274 2.39634 7.03731 3.00876 6.10327C3.58277 5.22782 4.74054 5.16001 5.47379 5.75349L12.4719 11.4176C12.7938 11.6782 12.8436 12.1504 12.583 12.4724C12.3224 12.7944 11.8501 12.8441 11.5282 12.5835L7.48846 9.31388C7.01931 10.0997 6.75001 11.0181 6.75001 12.0006C6.75001 14.9001 9.10052 17.2506 12 17.2506C14.8995 17.2506 17.25 14.9001 17.25 12.0006C17.25 9.10107 14.8995 6.75056 12 6.75056C11.4186 6.75056 10.8606 6.8448 10.3398 7.01826C9.94681 7.14915 9.52213 6.93666 9.39125 6.54367C9.26037 6.15068 9.47285 5.726 9.86584 5.59511C10.5376 5.3714 11.2554 5.25056 12 5.25056C15.7279 5.25056 18.75 8.27264 18.75 12.0006C18.75 15.7285 15.7279 18.7506 12 18.7506C8.27209 18.7506 5.25001 15.7285 5.25001 12.0006C5.25001 10.6617 5.64047 9.41264 6.31331 8.36274L4.5301 6.91944C4.47426 6.87425 4.41142 6.86067 4.36153 6.8667C4.31611 6.87219 4.28535 6.89192 4.26316 6.92575C3.73717 7.72798 3.32764 8.62706 3.0652 9.60649C1.74299 14.541 4.67138 19.6132 9.60594 20.9354C14.5405 22.2576 19.6126 19.3292 20.9348 14.3946C22.257 9.46008 19.3287 4.38796 14.3941 3.06575Z" fill="#26282B"/>
</svg>
