<svg width="24" height="24" viewBox="0 0 24 24" fill="none" xmlns="http://www.w3.org/2000/svg">
<path d="M16 10.5004C16 11.3288 15.5523 12.0004 15 12.0004C14.4477 12.0004 14 11.3288 14 10.5004C14 9.67196 14.4477 9.00039 15 9.00039C15.5523 9.00039 16 9.67196 16 10.5004Z" fill="#26282B"/>
<path d="M10 10.5004C10 11.3288 9.55229 12.0004 9 12.0004C8.44772 12.0004 8 11.3288 8 10.5004C8 9.67196 8.44772 9.00039 9 9.00039C9.55229 9.00039 10 9.67196 10 10.5004Z" fill="#26282B"/>
<path fill-rule="evenodd" clip-rule="evenodd" d="M13.265 2.05116C13.3474 1.64522 13.7433 1.38294 14.1492 1.46533C18.3627 2.32056 21.6798 5.63763 22.5351 9.85114C22.6175 10.2571 22.3553 10.6529 21.9493 10.7353C21.5434 10.8177 21.1475 10.5555 21.0651 10.1495C20.3297 6.52642 17.474 3.67075 13.8508 2.93535C13.4449 2.85296 13.1826 2.45709 13.265 2.05116ZM10.7352 2.05121C10.8176 2.45714 10.5553 2.85301 10.1493 2.93541C6.52621 3.6708 3.6705 6.52647 2.93505 10.1496C2.85265 10.5555 2.45677 10.8178 2.05084 10.7354C1.6449 10.653 1.38263 10.2571 1.46503 9.85119C2.32032 5.63769 5.63744 2.32061 9.85097 1.46538C10.2569 1.38299 10.6528 1.64527 10.7352 2.05121ZM2.051 13.2654C2.45693 13.183 2.85281 13.4453 2.93521 13.8512C3.67066 17.4743 6.52636 20.33 10.1495 21.0654C10.5554 21.1478 10.8177 21.5436 10.7353 21.9496C10.6529 22.3555 10.2571 22.6178 9.85113 22.5354C5.6376 21.6802 2.32048 18.3631 1.46519 14.1496C1.38279 13.7437 1.64506 13.3478 2.051 13.2654ZM21.9493 13.2654C22.3553 13.3478 22.6175 13.7437 22.5351 14.1496C21.6798 18.3631 18.3627 21.6802 14.1492 22.5354C13.7433 22.6178 13.3474 22.3555 13.265 21.9496C13.1826 21.5436 13.4449 21.1478 13.8508 21.0654C17.474 20.33 20.3297 17.4743 21.0651 13.8512C21.1475 13.4453 21.5434 13.183 21.9493 13.2654ZM8.39748 15.5538C8.64413 15.221 9.11385 15.1512 9.44661 15.3979C10.175 15.9377 11.0541 16.2504 12 16.2504C12.9459 16.2504 13.825 15.9377 14.5534 15.3979C14.8862 15.1512 15.3559 15.221 15.6025 15.5538C15.8492 15.8865 15.7794 16.3563 15.4466 16.6029C14.4742 17.3237 13.285 17.7504 12 17.7504C10.715 17.7504 9.5258 17.3237 8.55339 16.6029C8.22062 16.3563 8.15082 15.8865 8.39748 15.5538Z" fill="#26282B"/>
</svg>
