<svg width="24" height="24" viewBox="0 0 24 24" fill="none" xmlns="http://www.w3.org/2000/svg">
<path fill-rule="evenodd" clip-rule="evenodd" d="M7.84743 1.25C7.86214 1.25 7.87689 1.25001 7.89169 1.25001L16.1525 1.25C16.5986 1.24996 17.0037 1.24991 17.3326 1.29296C17.6919 1.33999 18.0711 1.45011 18.3848 1.75553C18.7013 2.06368 18.8182 2.44094 18.8678 2.80014C18.9125 3.1243 18.9125 3.52236 18.9124 3.95444L18.9124 5.38934L22.6374 17.7362C22.9334 18.7175 22.6513 19.8725 21.6513 20.4724C20.1187 21.392 17.0035 22.75 12 22.75C6.99648 22.75 3.88126 21.392 2.34862 20.4724C1.34867 19.8725 1.06657 18.7175 1.36261 17.7362L5.08754 5.38934V4.00001C5.08754 3.98478 5.08754 3.96958 5.08753 3.95444C5.08748 3.52236 5.08743 3.1243 5.13219 2.80014C5.18179 2.44094 5.29867 2.06368 5.61516 1.75553C5.92885 1.45011 6.3081 1.33999 6.66736 1.29296C6.99621 1.24991 7.40137 1.24996 7.84743 1.25ZM6.39466 6.25001L2.79868 18.1695C2.66285 18.6197 2.81572 19.0034 3.12035 19.1862C3.90976 19.6598 5.2554 20.3103 7.22883 20.7535L9.03443 6.25001H6.39466ZM10.546 6.25001L8.70673 21.0241C9.68322 21.1645 10.7791 21.25 12 21.25C13.2209 21.25 14.3167 21.1645 15.2932 21.0241L13.454 6.25001H10.546ZM14.9655 6.25001L16.7711 20.7535C18.7446 20.3103 20.0902 19.6598 20.8796 19.1862C21.1842 19.0034 21.3371 18.6197 21.2013 18.1695L17.6053 6.25001H14.9655ZM17.4124 4.75001V4.00001C17.4124 3.50684 17.4107 3.21443 17.3819 3.00533C17.3687 2.90991 17.3533 2.86299 17.3447 2.84254C17.3427 2.8378 17.3411 2.83473 17.3402 2.833L17.3389 2.83074C17.3388 2.83062 17.3391 2.83094 17.3389 2.83074C17.3379 2.82976 17.337 2.82902 17.3361 2.82843C17.335 2.8277 17.3298 2.82451 17.318 2.81979C17.2922 2.80944 17.2393 2.79354 17.1379 2.78027C16.9182 2.75152 16.6131 2.75001 16.1083 2.75001H7.89169C7.38686 2.75001 7.08173 2.75152 6.86205 2.78027C6.7607 2.79354 6.70778 2.80944 6.68194 2.81979C6.67016 2.82451 6.665 2.8277 6.66385 2.82843C6.66293 2.82902 6.66257 2.82928 6.66156 2.83026C6.66136 2.83046 6.66168 2.83014 6.66156 2.83026L6.65978 2.833C6.65885 2.83473 6.65731 2.8378 6.6553 2.84254C6.64666 2.86299 6.63127 2.90991 6.61809 3.00533C6.58922 3.21443 6.58754 3.50684 6.58754 4.00001V4.75001H17.4124Z" fill="#26282B"/>
</svg>
