<svg width="24" height="24" viewBox="0 0 24 24" fill="none" xmlns="http://www.w3.org/2000/svg">
<path fill-rule="evenodd" clip-rule="evenodd" d="M16.8773 2.59813C16.8694 2.6124 16.8611 2.62749 16.8522 2.64349L16.7757 2.78178L17.6421 3.30371L17.7204 3.1622C17.7287 3.14733 17.7364 3.13331 17.7437 3.12004C17.7308 3.11221 17.717 3.10394 17.7025 3.09517L16.9218 2.62487C16.9061 2.61543 16.8913 2.60654 16.8773 2.59813ZM17.9306 3.23881C17.9306 3.23881 17.9303 3.23858 17.9298 3.23812L17.9306 3.23881ZM17.2048 4.79139L15.733 3.9048L13.0682 5.21449C12.9831 5.25633 12.9487 5.27326 12.9171 5.2895C11.9498 5.78616 11.199 6.64352 10.8073 7.68699L10.8669 7.65716C12.0721 7.0546 13.5176 7.20774 14.5697 8.04943C15.0873 8.46356 15.7796 8.58704 16.4086 8.3774L17.4637 8.0257C17.4614 7.99563 17.4583 7.9563 17.4532 7.89247L17.2048 4.79139ZM18.962 8.78991C19.0062 8.65688 19.0135 8.51051 18.9762 8.36655C18.9761 8.23559 18.9719 8.10423 18.9636 7.97265C18.9603 7.92139 18.956 7.86819 18.949 7.78012L18.6873 4.51304L19.0424 3.8712C19.0996 3.76794 19.1619 3.65543 19.2081 3.55341C19.2606 3.43748 19.3192 3.2795 19.3279 3.08671C19.3395 2.82928 19.2713 2.57454 19.1326 2.35737C19.0287 2.19473 18.899 2.08717 18.7956 2.01297C18.7047 1.94767 18.5945 1.88133 18.4934 1.82045L18.4765 1.81029L17.678 1.32928C17.5697 1.26402 17.4529 1.19363 17.3471 1.14126C17.2278 1.08223 17.0627 1.01458 16.859 1.00237C16.5892 0.986183 16.3215 1.05787 16.0959 1.20669C15.9256 1.31902 15.8163 1.46013 15.7425 1.57087C15.677 1.66913 15.611 1.78846 15.5498 1.89909L15.2273 2.48198L12.3997 3.87168C12.3235 3.90912 12.2766 3.93215 12.2319 3.95514C10.606 4.79002 9.46047 6.35882 9.11562 8.18808C9.10611 8.23853 9.09709 8.29111 9.08217 8.3781L9.08094 8.38529C9.06501 8.47817 9.05798 8.51909 9.05076 8.55858C8.78456 10.0143 8.0939 11.3427 7.07835 12.3645C7.05083 12.3922 7.02207 12.4205 6.95619 12.4852L6.1518 13.2762C5.64777 13.7718 5.24146 14.1713 4.93768 14.515C4.62759 14.8658 4.37758 15.2088 4.22734 15.6033C3.82618 16.6566 3.96118 17.8504 4.59068 18.7835C4.82679 19.1335 5.14871 19.409 5.5299 19.6772C5.90313 19.9397 6.38864 20.2322 6.99012 20.5945L7.70314 21.024C8.30438 21.3862 8.78997 21.6788 9.19477 21.8849C9.60683 22.0947 10.0015 22.2509 10.4202 22.2902C11.5377 22.3951 12.6191 21.9051 13.3001 21.0063C13.5538 20.6715 13.7127 20.2747 13.8478 19.8225C13.9808 19.3774 14.109 18.8118 14.2685 18.1076L14.5226 16.9864C14.5434 16.8946 14.5525 16.8541 14.5618 16.8151C14.9043 15.3776 15.6637 14.0917 16.7309 13.1305C16.7598 13.1044 16.79 13.0779 16.8592 13.017L16.8647 13.0121C16.9293 12.9553 16.9687 12.9206 17.0062 12.8864C18.164 11.8316 18.8564 10.3549 18.962 8.78991ZM17.2962 9.66265L16.8829 9.80042C15.7713 10.171 14.5476 9.95272 13.6326 9.22074C13.0374 8.74453 12.2196 8.6579 11.5378 8.9988L10.3518 9.59176C9.95287 11.0413 9.19399 12.3637 8.14225 13.4219C8.10794 13.4564 8.07275 13.491 8.01157 13.5512L7.22343 14.3261C6.69478 14.8459 6.32638 15.2088 6.06157 15.5084C5.79909 15.8053 5.68537 15.9895 5.62912 16.1372C5.4006 16.7372 5.47929 17.4186 5.83417 17.9446C5.92087 18.0731 6.07138 18.2241 6.39293 18.4503C6.71743 18.6786 7.15695 18.9439 7.78835 19.3242L8.45269 19.7244C9.08421 20.1049 9.52399 20.3693 9.87538 20.5482C10.225 20.7262 10.4206 20.7836 10.5605 20.7967C11.1463 20.8518 11.7281 20.5973 12.1045 20.1004C12.1976 19.9776 12.2944 19.7821 12.4106 19.393C12.5274 19.0024 12.6447 18.4865 12.8117 17.7494L13.0607 16.6503C13.0801 16.5645 13.0912 16.5156 13.1027 16.4675C13.514 14.741 14.4286 13.1854 15.727 12.0159C15.763 11.9835 15.7999 11.951 15.8638 11.8948L15.8682 11.8909C15.94 11.8277 15.9692 11.802 15.9959 11.7777C16.6179 11.211 17.065 10.475 17.2962 9.66265Z" fill="#1C274C"/>
</svg>
