<svg width="24" height="24" viewBox="0 0 24 24" fill="none" xmlns="http://www.w3.org/2000/svg">
<path fill-rule="evenodd" clip-rule="evenodd" d="M12.9388 4.73542C13.3513 4.69785 13.7161 5.0018 13.7537 5.4143C13.8025 5.95058 13.8932 6.53361 14.0452 7.14711C14.1448 7.54916 13.8997 7.95586 13.4976 8.05549C13.0956 8.15512 12.6889 7.90997 12.5892 7.50791C12.4173 6.81421 12.315 6.15558 12.2599 5.55036C12.2223 5.13785 12.5263 4.77299 12.9388 4.73542ZM5.2396 9.18054C5.47839 8.84208 5.94634 8.76129 6.2848 9.00008C6.78137 9.35043 7.30059 9.76836 7.81541 10.2641C8.11378 10.5514 8.12274 11.0262 7.83543 11.3246C7.54812 11.6229 7.07333 11.6319 6.77496 11.3446C6.31967 10.9062 5.86007 10.5362 5.42006 10.2257C5.0816 9.98694 5.00081 9.51899 5.2396 9.18054ZM13.8362 8.99599C14.2095 8.81661 14.6576 8.97385 14.837 9.3472C14.9607 9.60468 15.0972 9.86417 15.2476 10.1247C15.398 10.3852 15.5545 10.6332 15.7157 10.869C15.9493 11.2111 15.8614 11.6778 15.5194 11.9114C15.1774 12.145 14.7107 12.0572 14.4771 11.7151C14.2949 11.4485 14.1182 11.1685 13.9486 10.8747C13.7789 10.5809 13.6248 10.2879 13.485 9.99681C13.3056 9.62346 13.4628 9.17538 13.8362 8.99599ZM8.48065 12.088C8.82268 11.8544 9.28935 11.9422 9.52299 12.2843C9.70514 12.5509 9.88182 12.8309 10.0515 13.1247C10.2211 13.4185 10.3752 13.7115 10.5151 14.0026C10.6945 14.3759 10.5372 14.824 10.1639 15.0034C9.7905 15.1828 9.34242 15.0256 9.16303 14.6522C9.03932 14.3947 8.90285 14.1352 8.75243 13.8747C8.60201 13.6142 8.44553 13.3662 8.2844 13.1304C8.05075 12.7883 8.13862 12.3217 8.48065 12.088ZM16.1646 12.6748C16.4519 12.3765 16.9267 12.3675 17.2251 12.6548C17.6804 13.0932 18.14 13.4632 18.58 13.7737C18.9184 14.0125 18.9992 14.4804 18.7605 14.8189C18.5217 15.1573 18.0537 15.2381 17.7153 14.9993C17.2187 14.649 16.6995 14.2311 16.1846 13.7353C15.8863 13.448 15.8773 12.9732 16.1646 12.6748ZM10.5024 15.9439C10.9045 15.8443 11.3112 16.0894 11.4108 16.4915C11.5827 17.1852 11.685 17.8438 11.7402 18.4491C11.7777 18.8616 11.4738 19.2264 11.0613 19.264C10.6488 19.3016 10.2839 18.9976 10.2463 18.5851C10.1975 18.0488 10.1069 17.4658 9.95484 16.8523C9.85521 16.4502 10.1004 16.0436 10.5024 15.9439Z" fill="#26282B"/>
<path fill-rule="evenodd" clip-rule="evenodd" d="M13.2861 1.32632C11.0552 1.05591 8.72011 1.48034 6.62502 2.68993C1.48338 5.65846 -0.278279 12.2331 2.69025 17.3747C5.65878 22.5164 12.2334 24.278 17.375 21.3095C19.4701 20.0999 21.0052 18.2898 21.8865 16.2227C23.1663 13.2206 23.0685 9.67094 21.3098 6.62471C19.5511 3.57847 16.5258 1.71902 13.2861 1.32632ZM13.7804 3.08033C13.7311 3.49161 13.3578 3.7851 12.9465 3.73585C12.5353 3.68661 12.2418 3.31329 12.291 2.90201C12.2971 2.85081 12.3034 2.8013 12.3098 2.75354C10.6382 2.6958 8.93115 3.09054 7.37502 3.98897C5.81969 4.88694 4.6238 6.16839 3.83782 7.64494C3.88234 7.66328 3.92833 7.68258 3.9757 7.70286C4.3565 7.86585 4.53306 8.30668 4.37007 8.68748C4.20708 9.06827 3.76625 9.24484 3.38545 9.08184C3.33574 9.06057 3.28798 9.04062 3.2423 9.02195C2.41542 11.457 2.60244 14.2226 3.98929 16.6247C5.37614 19.0268 7.6777 20.5716 10.2 21.073C10.2066 21.0241 10.2133 20.9728 10.2197 20.9191C10.2689 20.5078 10.6422 20.2143 11.0535 20.2636C11.4648 20.3128 11.7583 20.6861 11.709 21.0974C11.7029 21.1486 11.6966 21.198 11.6903 21.2458C13.362 21.3034 15.0697 20.9084 16.625 20.0104C18.1812 19.112 19.3766 17.831 20.1623 16.3545C20.1178 16.3362 20.0718 16.3168 20.0244 16.2966C19.6436 16.1336 19.467 15.6927 19.63 15.3119C19.793 14.9311 20.2338 14.7546 20.6146 14.9176C20.6643 14.9388 20.7121 14.9588 20.7578 14.9775C21.5851 12.5411 21.3974 9.77639 20.0108 7.37471C18.6241 4.97302 16.3237 3.42808 13.8001 2.92639C13.7934 2.97529 13.7868 3.02664 13.7804 3.08033Z" fill="#26282B"/>
</svg>
