<svg width="24" height="24" viewBox="0 0 24 24" fill="none" xmlns="http://www.w3.org/2000/svg">
<path fill-rule="evenodd" clip-rule="evenodd" d="M4.58149 6.01037C5.27226 4.99469 6.7151 5.03259 7.44341 5.90937C8.42538 7.09155 9.80974 8.24983 12 8.24983C14.2277 8.24983 15.5909 7.31995 16.5185 6.15371C17.24 5.24674 18.7774 5.10103 19.5335 6.17693C20.1519 7.05691 20.8279 7.75783 22.1622 8.05353C22.5667 8.14315 22.8218 8.54363 22.7322 8.94803C22.6426 9.35244 22.2421 9.60762 21.8377 9.518C19.9967 9.11001 19.0391 8.08213 18.3063 7.0394C18.2577 6.97023 18.1708 6.91916 18.0398 6.9215C17.9038 6.92393 17.773 6.98622 17.6925 7.08746C16.5172 8.56506 14.7411 9.74983 12 9.74983C9.17712 9.74983 7.41069 8.21753 6.28956 6.86782L6.86648 6.3886L6.28956 6.86782C6.22431 6.78928 6.12732 6.7479 6.02866 6.74989C5.93331 6.75182 5.86394 6.79199 5.82182 6.85393C5.07564 7.95107 4.11838 9.0845 2.16225 9.518C1.75785 9.60762 1.35736 9.35244 1.26774 8.94803C1.17812 8.54363 1.4333 8.14315 1.83771 8.05353C3.24962 7.74063 3.92588 6.97435 4.58149 6.01037ZM4.58149 11.0104C5.27226 9.99469 6.7151 10.0326 7.44341 10.9094C8.42538 12.0915 9.80974 13.2498 12 13.2498C14.2277 13.2498 15.5909 12.3199 16.5185 11.1537C17.24 10.2467 18.7774 10.101 19.5335 11.1769C20.1519 12.0569 20.8279 12.7578 22.1622 13.0535C22.5667 13.1431 22.8218 13.5436 22.7322 13.948C22.6426 14.3524 22.2421 14.6076 21.8377 14.518C19.9967 14.11 19.0391 13.0821 18.3063 12.0394C18.2577 11.9702 18.1708 11.9192 18.0398 11.9215C17.9038 11.9239 17.773 11.9862 17.6925 12.0875C16.5172 13.5651 14.7411 14.7498 12 14.7498C9.17712 14.7498 7.41069 13.2175 6.28956 11.8678C6.22431 11.7893 6.12732 11.7479 6.02866 11.7499C5.93331 11.7518 5.86394 11.792 5.82182 11.8539C5.07564 12.9511 4.11838 14.0845 2.16225 14.518C1.75785 14.6076 1.35736 14.3524 1.26774 13.948C1.17812 13.5436 1.4333 13.1431 1.83771 13.0535C3.24962 12.7406 3.92588 11.9744 4.58149 11.0104ZM4.58149 16.0104C5.27226 14.9947 6.7151 15.0326 7.44341 15.9094C8.42538 17.0915 9.80974 18.2498 12 18.2498C14.2277 18.2498 15.5909 17.3199 16.5185 16.1537C17.24 15.2467 18.7774 15.101 19.5335 16.1769C20.1519 17.0569 20.8279 17.7578 22.1622 18.0535C22.5667 18.1431 22.8218 18.5436 22.7322 18.948C22.6426 19.3524 22.2421 19.6076 21.8377 19.518C19.9967 19.11 19.0391 18.0821 18.3063 17.0394C18.2577 16.9702 18.1708 16.9192 18.0398 16.9215C17.9038 16.9239 17.773 16.9862 17.6925 17.0875C16.5172 18.5651 14.7411 19.7498 12 19.7498C9.17712 19.7498 7.41069 18.2175 6.28956 16.8678C6.22431 16.7893 6.12732 16.7479 6.02866 16.7499C5.93331 16.7518 5.86394 16.792 5.82182 16.8539C5.07564 17.9511 4.11838 19.0845 2.16225 19.518C1.75785 19.6076 1.35736 19.3524 1.26774 18.948C1.17812 18.5436 1.4333 18.1431 1.83771 18.0535C3.24962 17.7406 3.92588 16.9744 4.58149 16.0104Z" fill="#26282B"/>
</svg>
