<svg width="24" height="24" viewBox="0 0 24 24" fill="none" xmlns="http://www.w3.org/2000/svg">
<path fill-rule="evenodd" clip-rule="evenodd" d="M11.1988 2.91979C10.7812 3.04887 10.2417 3.24492 9.48774 3.51924C8.42173 3.90707 7.16774 4.28252 6.06789 4.38251C5.79401 4.40741 5.59696 4.42534 5.45168 4.44069C5.37954 4.44831 5.32551 4.45474 5.28477 4.46041C5.26469 4.4632 5.24959 4.46556 5.2385 4.46748L5.2261 4.46975C5.22321 4.47032 5.2219 4.47062 5.22194 4.47061C4.88783 4.54684 4.68143 4.67497 4.54858 4.82045C4.41573 4.96593 4.3068 5.18308 4.26114 5.52272C4.25183 5.59191 4.24999 5.71887 4.24999 6.13735V14.2498H19.75V6.13735C19.75 5.71887 19.7481 5.59192 19.7388 5.52272C19.6932 5.18307 19.5842 4.96593 19.4514 4.82045C19.3185 4.67497 19.1122 4.54684 18.778 4.47061C18.7781 4.47062 18.7768 4.47032 18.7739 4.46975L18.7615 4.46748C18.7504 4.46557 18.7353 4.4632 18.7152 4.46041C18.6745 4.45474 18.6204 4.44831 18.5483 4.44068C18.403 4.42534 18.2059 4.4074 17.9321 4.38251C16.8322 4.28252 15.5782 3.90707 14.5122 3.51923C13.7582 3.24491 13.2187 3.04887 12.8012 2.91979C12.3773 2.78879 12.1472 2.74951 12 2.74951C11.8528 2.74951 11.6226 2.78879 11.1988 2.91979ZM21.25 14.2676V6.13735C21.25 6.11505 21.25 6.09313 21.25 6.07158C21.2501 5.74763 21.2502 5.50672 21.2255 5.32283C21.148 4.74653 20.9388 4.22477 20.559 3.80894C20.1793 3.39311 19.6786 3.13753 19.1117 3.00819C18.9306 2.96687 18.6175 2.93849 18.1676 2.89771C18.135 2.89476 18.1018 2.89175 18.0679 2.88867C17.1639 2.80649 16.0555 2.4845 15.0251 2.10963L15.0052 2.10239C14.2754 1.83687 13.7012 1.62797 13.2441 1.48669C12.7891 1.34605 12.3816 1.24951 12 1.24951C11.6184 1.24951 11.2108 1.34605 10.7559 1.48669C10.2988 1.62798 9.72457 1.83688 8.99477 2.1024L8.97489 2.10963C7.94451 2.4845 6.83609 2.80649 5.93209 2.88867C5.89815 2.89175 5.86493 2.89476 5.83242 2.89771C5.38244 2.93849 5.06939 2.96687 4.88828 3.00819C4.32136 3.13753 3.82069 3.39311 3.44094 3.80894C3.0612 4.22477 2.852 4.74653 2.77451 5.32283C2.74979 5.50672 2.74987 5.74763 2.74997 6.07158C2.74998 6.09313 2.74999 6.11505 2.74999 6.13735V14.2676C1.90286 14.389 1.2468 15.1178 1.25174 16.0041C1.25776 17.0856 1.28364 17.987 1.41894 18.7235C1.55817 19.4815 1.82341 20.1266 2.34834 20.6515C2.86864 21.1718 3.50548 21.4358 4.24999 21.576V21.9998C4.24999 22.4141 4.58577 22.7498 4.99999 22.7498C5.4142 22.7498 5.74999 22.4141 5.74999 21.9998V21.7242C6.38924 21.7499 7.11875 21.7499 7.94512 21.7498H16.0549C16.8812 21.7499 17.6107 21.7499 18.25 21.7242V21.9998C18.25 22.4141 18.5858 22.7498 19 22.7498C19.4142 22.7498 19.75 22.4141 19.75 21.9998V21.576C20.4945 21.4358 21.1313 21.1718 21.6516 20.6515C22.1766 20.1266 22.4418 19.4815 22.581 18.7235C22.7163 17.987 22.7422 17.0856 22.7482 16.0041C22.7532 15.1178 22.0971 14.389 21.25 14.2676ZM12.75 20.2498H16C17.4354 20.2498 18.4365 20.2483 19.1919 20.1467C19.9256 20.048 20.3142 19.8676 20.591 19.5908C20.8344 19.3474 21.0016 19.0193 21.1057 18.4525C21.2138 17.8643 21.2422 17.0892 21.2483 15.9957C21.249 15.863 21.1401 15.7498 21 15.7498H12.75V20.2498ZM11.25 15.7498V20.2498H7.99999C6.56457 20.2498 5.56346 20.2483 4.80811 20.1467C4.07433 20.048 3.68576 19.8676 3.409 19.5908C3.16554 19.3474 2.99837 19.0193 2.89425 18.4525C2.7862 17.8643 2.7578 17.0892 2.75171 15.9957C2.75097 15.863 2.85986 15.7498 2.99999 15.7498H11.25ZM11.0303 6.46952C11.3232 6.76241 11.3232 7.23728 11.0303 7.53018L10.0303 8.53018C9.73742 8.82307 9.26255 8.82307 8.96966 8.53018C8.67676 8.23728 8.67676 7.76241 8.96966 7.46952L9.96966 6.46952C10.2626 6.17662 10.7374 6.17662 11.0303 6.46952ZM14.0303 7.46952C14.3232 7.76241 14.3232 8.23728 14.0303 8.53018L11.0303 11.5302C10.7374 11.8231 10.2626 11.8231 9.96966 11.5302C9.67676 11.2373 9.67676 10.7624 9.96966 10.4695L12.9697 7.46952C13.2625 7.17662 13.7374 7.17662 14.0303 7.46952ZM15.0303 10.4695C15.3232 10.7624 15.3232 11.2373 15.0303 11.5302L14.0303 12.5302C13.7374 12.8231 13.2625 12.8231 12.9697 12.5302C12.6768 12.2373 12.6768 11.7624 12.9697 11.4695L13.9697 10.4695C14.2625 10.1766 14.7374 10.1766 15.0303 10.4695ZM6.24999 17.9998C6.24999 17.5856 6.58577 17.2498 6.99999 17.2498H8.99999C9.4142 17.2498 9.74999 17.5856 9.74999 17.9998C9.74999 18.4141 9.4142 18.7498 8.99999 18.7498H6.99999C6.58577 18.7498 6.24999 18.4141 6.24999 17.9998ZM14.25 17.9998C14.25 17.5856 14.5858 17.2498 15 17.2498H17C17.4142 17.2498 17.75 17.5856 17.75 17.9998C17.75 18.4141 17.4142 18.7498 17 18.7498H15C14.5858 18.7498 14.25 18.4141 14.25 17.9998Z" fill="#1C274C"/>
</svg>
