<svg width="28" height="28" viewBox="0 0 28 28" fill="none" xmlns="http://www.w3.org/2000/svg">
<path d="M14.0001 14C13.6907 14 13.3939 13.8771 13.1751 13.6583C12.9563 13.4395 12.8334 13.1428 12.8334 12.8333C12.8334 12.5239 12.9563 12.2272 13.1751 12.0084C13.3939 11.7896 13.6907 11.6667 14.0001 11.6667C14.3095 11.6667 14.6062 11.7896 14.825 12.0084C15.0438 12.2272 15.1667 12.5239 15.1667 12.8333C15.1667 13.1428 15.0438 13.4395 14.825 13.6583C14.6062 13.8771 14.3095 14 14.0001 14ZM14.0001 14V16.9167M13.9999 3.5C16.725 5.911 20.2818 7.16633 23.9166 7C24.4457 8.80018 24.6077 10.6884 24.3927 12.5524C24.1777 14.4164 23.5903 16.2181 22.6652 17.8506C21.7401 19.4831 20.4963 20.9129 19.0078 22.0552C17.5192 23.1975 15.8161 24.0289 13.9999 24.5C12.1836 24.0289 10.4806 23.1975 8.99202 22.0552C7.50343 20.9129 6.25965 19.4831 5.33458 17.8506C4.40952 16.2181 3.82204 14.4164 3.60708 12.5524C3.39211 10.6884 3.55403 8.80018 4.08322 7C7.718 7.16633 11.2748 5.911 13.9999 3.5Z" stroke="#26282B" stroke-width="2" stroke-linecap="round" stroke-linejoin="round"/>
</svg>
