<svg width="28" height="28" viewBox="0 0 28 28" fill="none" xmlns="http://www.w3.org/2000/svg">
<path d="M15.1665 3.50033C19.6932 3.50033 23.3332 7.16366 23.3332 11.667C23.3332 14.9337 21.4315 17.722 18.6665 19.0287V24.5003H10.4998V21.0003H9.33316C8.03816 21.0003 6.99982 19.962 6.99982 18.667V15.167H5.24982C4.75982 15.167 4.47982 14.5837 4.75982 14.222L6.99982 11.2703C7.10261 9.17417 8.00809 7.19795 9.52854 5.75135C11.049 4.30474 13.0678 3.49871 15.1665 3.50033ZM15.1665 1.16699C9.81149 1.16699 5.37816 5.15699 4.73649 10.3837L2.91649 12.8337H2.88149L2.85816 12.8687C2.21649 13.7553 2.13482 14.922 2.63649 15.8903C3.05649 16.6953 3.80316 17.2553 4.66649 17.4303V18.667C4.66649 20.8253 6.15982 22.657 8.16649 23.182V26.8337H20.9998V20.417C23.9165 18.4687 25.6665 15.237 25.6665 11.667C25.6665 5.86866 20.9532 1.16699 15.1665 1.16699ZM19.8332 10.302C19.8332 12.0987 18.2465 13.5337 15.8432 15.7153L15.1665 16.3337L14.4898 15.7153C12.0865 13.5337 10.4998 12.0987 10.4998 10.302C10.4998 8.90199 11.6198 7.74699 13.0198 7.73533H13.0665C13.8715 7.73533 14.6415 8.09699 15.1665 8.70366C15.6915 8.09699 16.4615 7.73533 17.2665 7.73533C18.6665 7.72366 19.8332 8.85533 19.8332 10.2553V10.302Z" fill="#26282B"/>
</svg>
