<svg width="24" height="24" viewBox="0 0 24 24" fill="none" xmlns="http://www.w3.org/2000/svg">
<path d="M8.66675 15.4667V20.4667M8.66675 15.4667H12.6667M8.66675 15.4667L7.66675 8.46667M12.6667 15.4667V20.4667M12.6667 15.4667L13.6667 8.46667M7.66675 8.46667H13.6667M7.66675 8.46667C6.33375 8.46667 4.99975 9.13367 3.66675 10.4667M13.6667 8.46667C14.9997 8.46667 16.3337 9.13367 17.6667 10.4667M8.66675 3.46667C8.66675 3.99711 8.87746 4.50582 9.25254 4.88089C9.62761 5.25596 10.1363 5.46667 10.6667 5.46667C11.1972 5.46667 11.7059 5.25596 12.081 4.88089C12.456 4.50582 12.6667 3.99711 12.6667 3.46667C12.6667 2.93624 12.456 2.42753 12.081 2.05246C11.7059 1.67739 11.1972 1.46667 10.6667 1.46667C10.1363 1.46667 9.62761 1.67739 9.25254 2.05246C8.87746 2.42753 8.66675 2.93624 8.66675 3.46667Z" stroke="#26282B" stroke-width="2.72727" stroke-linecap="round" stroke-linejoin="round"/>
</svg>
