<svg width="31" height="31" viewBox="0 0 31 31" fill="none" xmlns="http://www.w3.org/2000/svg">
<g filter="url(#filter0_d_77_175286)">
<path d="M8.43782 17.151L10.4556 14.1244M12.4734 10.0888L14.4911 7.06218M16.5089 7.06218L18.5266 10.0888M20.5444 14.1244L22.5622 17.151M18.5266 14.1244L16.5089 17.151M12.4734 14.1244L14.4911 17.151M13.4822 5.04442C13.4822 5.57956 13.6948 6.09279 14.0732 6.47119C14.4516 6.8496 14.9649 7.06218 15.5 7.06218C16.0351 7.06218 16.5484 6.8496 16.9268 6.47119C17.3052 6.09279 17.5178 5.57956 17.5178 5.04442C17.5178 4.50927 17.3052 3.99604 16.9268 3.61764C16.5484 3.23923 16.0351 3.02665 15.5 3.02665C14.9649 3.02665 14.4516 3.23923 14.0732 3.61764C13.6948 3.99604 13.4822 4.50927 13.4822 5.04442ZM9.4467 12.1066C9.4467 12.6417 9.65929 13.155 10.0377 13.5334C10.4161 13.9118 10.9293 14.1244 11.4645 14.1244C11.9996 14.1244 12.5128 13.9118 12.8912 13.5334C13.2696 13.155 13.4822 12.6417 13.4822 12.1066C13.4822 11.5715 13.2696 11.0582 12.8912 10.6798C12.5128 10.3014 11.9996 10.0888 11.4645 10.0888C10.9293 10.0888 10.4161 10.3014 10.0377 10.6798C9.65929 11.0582 9.4467 11.5715 9.4467 12.1066ZM13.4822 19.1688C13.4822 19.7039 13.6948 20.2171 14.0732 20.5956C14.4516 20.974 14.9649 21.1865 15.5 21.1865C16.0351 21.1865 16.5484 20.974 16.9268 20.5956C17.3052 20.2171 17.5178 19.7039 17.5178 19.1688C17.5178 18.6336 17.3052 18.1204 16.9268 17.742C16.5484 17.3636 16.0351 17.151 15.5 17.151C14.9649 17.151 14.4516 17.3636 14.0732 17.742C13.6948 18.1204 13.4822 18.6336 13.4822 19.1688ZM21.5533 19.1688C21.5533 19.7039 21.7659 20.2171 22.1443 20.5956C22.5227 20.974 23.0359 21.1865 23.5711 21.1865C24.1062 21.1865 24.6194 20.974 24.9978 20.5956C25.3762 20.2171 25.5888 19.7039 25.5888 19.1688C25.5888 18.6336 25.3762 18.1204 24.9978 17.742C24.6194 17.3636 24.1062 17.151 23.5711 17.151C23.0359 17.151 22.5227 17.3636 22.1443 17.742C21.7659 18.1204 21.5533 18.6336 21.5533 19.1688ZM5.41117 19.1688C5.41117 19.7039 5.62376 20.2171 6.00216 20.5956C6.38056 20.974 6.89379 21.1865 7.42894 21.1865C7.96408 21.1865 8.47731 20.974 8.85571 20.5956C9.23412 20.2171 9.4467 19.7039 9.4467 19.1688C9.4467 18.6336 9.23412 18.1204 8.85571 17.742C8.47731 17.3636 7.96408 17.151 7.42894 17.151C6.89379 17.151 6.38056 17.3636 6.00216 17.742C5.62376 18.1204 5.41117 18.6336 5.41117 19.1688ZM17.5178 12.1066C17.5178 12.6417 17.7304 13.155 18.1088 13.5334C18.4872 13.9118 19.0004 14.1244 19.5355 14.1244C20.0707 14.1244 20.5839 13.9118 20.9623 13.5334C21.3407 13.155 21.5533 12.6417 21.5533 12.1066C21.5533 11.5715 21.3407 11.0582 20.9623 10.6798C20.5839 10.3014 20.0707 10.0888 19.5355 10.0888C19.0004 10.0888 18.4872 10.3014 18.1088 10.6798C17.7304 11.0582 17.5178 11.5715 17.5178 12.1066Z" stroke="#26282B" stroke-width="2.72727" stroke-linecap="round" stroke-linejoin="round"/>
</g>
<defs>
<filter id="filter0_d_77_175286" x="-0.641882" y="0" width="32.2843" height="32.2843" filterUnits="userSpaceOnUse" color-interpolation-filters="sRGB">
<feFlood flood-opacity="0" result="BackgroundImageFix"/>
<feColorMatrix in="SourceAlpha" type="matrix" values="0 0 0 0 0 0 0 0 0 0 0 0 0 0 0 0 0 0 127 0" result="hardAlpha"/>
<feOffset dy="4"/>
<feGaussianBlur stdDeviation="2"/>
<feComposite in2="hardAlpha" operator="out"/>
<feColorMatrix type="matrix" values="0 0 0 0 0 0 0 0 0 0 0 0 0 0 0 0 0 0 0.25 0"/>
<feBlend mode="normal" in2="BackgroundImageFix" result="effect1_dropShadow_77_175286"/>
<feBlend mode="normal" in="SourceGraphic" in2="effect1_dropShadow_77_175286" result="shape"/>
</filter>
</defs>
</svg>
