<svg width="28" height="28" viewBox="0 0 28 28" fill="none" xmlns="http://www.w3.org/2000/svg">
<path d="M21 9.33366V5.83366C21 5.52424 20.8771 5.22749 20.6583 5.0087C20.4395 4.78991 20.1428 4.66699 19.8333 4.66699H4.66667C4.35725 4.66699 4.0605 4.78991 3.84171 5.0087C3.62292 5.22749 3.5 5.52424 3.5 5.83366V19.8337C3.5 20.1431 3.62292 20.4398 3.84171 20.6586C4.0605 20.8774 4.35725 21.0003 4.66667 21.0003H15.1667M18.6667 10.5003H21M15.1667 10.5003C15.1667 10.1909 15.2896 9.89416 15.5084 9.67537C15.7272 9.45658 16.0239 9.33366 16.3333 9.33366H23.3333C23.6428 9.33366 23.9395 9.45658 24.1583 9.67537C24.3771 9.89416 24.5 10.1909 24.5 10.5003V22.167C24.5 22.4764 24.3771 22.7732 24.1583 22.992C23.9395 23.2107 23.6428 23.3337 23.3333 23.3337H16.3333C16.0239 23.3337 15.7272 23.2107 15.5084 22.992C15.2896 22.7732 15.1667 22.4764 15.1667 22.167V10.5003Z" stroke="#26282B" stroke-width="2" stroke-linecap="round" stroke-linejoin="round"/>
</svg>
