<svg width="24" height="24" viewBox="0 0 24 24" fill="none" xmlns="http://www.w3.org/2000/svg">
<path d="M4.99976 17L6.99976 14M8.99976 10L10.9998 7M12.9998 7L14.9998 10M16.9998 14L18.9998 17M14.9998 14L12.9998 17M8.99976 14L10.9998 17M9.99976 5C9.99976 5.53043 10.2105 6.03914 10.5855 6.41421C10.9606 6.78929 11.4693 7 11.9998 7C12.5302 7 13.0389 6.78929 13.414 6.41421C13.789 6.03914 13.9998 5.53043 13.9998 5C13.9998 4.46957 13.789 3.96086 13.414 3.58579C13.0389 3.21071 12.5302 3 11.9998 3C11.4693 3 10.9606 3.21071 10.5855 3.58579C10.2105 3.96086 9.99976 4.46957 9.99976 5ZM5.99976 12C5.99976 12.5304 6.21047 13.0391 6.58554 13.4142C6.96061 13.7893 7.46932 14 7.99976 14C8.53019 14 9.0389 13.7893 9.41397 13.4142C9.78904 13.0391 9.99976 12.5304 9.99976 12C9.99976 11.4696 9.78904 10.9609 9.41397 10.5858C9.0389 10.2107 8.53019 10 7.99976 10C7.46932 10 6.96061 10.2107 6.58554 10.5858C6.21047 10.9609 5.99976 11.4696 5.99976 12ZM9.99976 19C9.99976 19.5304 10.2105 20.0391 10.5855 20.4142C10.9606 20.7893 11.4693 21 11.9998 21C12.5302 21 13.0389 20.7893 13.414 20.4142C13.789 20.0391 13.9998 19.5304 13.9998 19C13.9998 18.4696 13.789 17.9609 13.414 17.5858C13.0389 17.2107 12.5302 17 11.9998 17C11.4693 17 10.9606 17.2107 10.5855 17.5858C10.2105 17.9609 9.99976 18.4696 9.99976 19ZM17.9998 19C17.9998 19.5304 18.2105 20.0391 18.5855 20.4142C18.9606 20.7893 19.4693 21 19.9998 21C20.5302 21 21.0389 20.7893 21.414 20.4142C21.789 20.0391 21.9998 19.5304 21.9998 19C21.9998 18.4696 21.789 17.9609 21.414 17.5858C21.0389 17.2107 20.5302 17 19.9998 17C19.4693 17 18.9606 17.2107 18.5855 17.5858C18.2105 17.9609 17.9998 18.4696 17.9998 19ZM1.99976 19C1.99976 19.5304 2.21047 20.0391 2.58554 20.4142C2.96061 20.7893 3.46932 21 3.99976 21C4.53019 21 5.0389 20.7893 5.41397 20.4142C5.78904 20.0391 5.99976 19.5304 5.99976 19C5.99976 18.4696 5.78904 17.9609 5.41397 17.5858C5.0389 17.2107 4.53019 17 3.99976 17C3.46932 17 2.96061 17.2107 2.58554 17.5858C2.21047 17.9609 1.99976 18.4696 1.99976 19ZM13.9998 12C13.9998 12.5304 14.2105 13.0391 14.5855 13.4142C14.9606 13.7893 15.4693 14 15.9998 14C16.5302 14 17.0389 13.7893 17.414 13.4142C17.789 13.0391 17.9998 12.5304 17.9998 12C17.9998 11.4696 17.789 10.9609 17.414 10.5858C17.0389 10.2107 16.5302 10 15.9998 10C15.4693 10 14.9606 10.2107 14.5855 10.5858C14.2105 10.9609 13.9998 11.4696 13.9998 12Z" stroke="#26282B" stroke-width="2.72727" stroke-linecap="round" stroke-linejoin="round"/>
</svg>
