<svg width="24" height="24" viewBox="0 0 24 24" fill="none" xmlns="http://www.w3.org/2000/svg">
<path d="M2 12C2 7.286 2 4.929 3.464 3.464C4.93 2 7.286 2 12 2C16.714 2 19.071 2 20.535 3.464C22 4.93 22 7.286 22 12C22 16.714 22 19.071 20.535 20.535C19.072 22 16.714 22 12 22C7.286 22 4.929 22 3.464 20.535C2 19.072 2 16.714 2 12Z" stroke="#26282B" stroke-width="1.5"/>
<path d="M11.25 18C11.25 18.1989 11.329 18.3896 11.4697 18.5303C11.6103 18.671 11.8011 18.75 12 18.75C12.1989 18.75 12.3897 18.671 12.5303 18.5303C12.671 18.3896 12.75 18.1989 12.75 18H11.25ZM18 7.99997L18.53 8.52997C18.6705 8.38934 18.7493 8.19872 18.7493 7.99997C18.7493 7.80122 18.6705 7.6106 18.53 7.46997L18 7.99997ZM17.03 5.96997C16.9613 5.89628 16.8785 5.83718 16.7865 5.79619C16.6945 5.7552 16.5952 5.73316 16.4945 5.73138C16.3938 5.7296 16.2938 5.74813 16.2004 5.78585C16.107 5.82357 16.0222 5.87971 15.951 5.95093C15.8797 6.02215 15.8236 6.10698 15.7859 6.20037C15.7482 6.29376 15.7296 6.39379 15.7314 6.49449C15.7332 6.5952 15.7552 6.69451 15.7962 6.78651C15.8372 6.87851 15.8963 6.96131 15.97 7.02997L17.03 5.96997ZM15.97 8.96997C15.8963 9.03863 15.8372 9.12143 15.7962 9.21343C15.7552 9.30543 15.7332 9.40475 15.7314 9.50545C15.7296 9.60615 15.7482 9.70618 15.7859 9.79957C15.8236 9.89296 15.8797 9.97779 15.951 10.049C16.0222 10.1202 16.107 10.1764 16.2004 10.2141C16.2938 10.2518 16.3938 10.2703 16.4945 10.2686C16.5952 10.2668 16.6945 10.2447 16.7865 10.2038C16.8785 10.1628 16.9613 10.1037 17.03 10.03L15.97 8.96997ZM12.75 18V12H11.25V18H12.75ZM16 8.74997H18V7.24997H16V8.74997ZM18.53 7.46997L17.03 5.96997L15.97 7.02997L17.47 8.52997L18.53 7.46997ZM17.47 7.46997L15.97 8.96997L17.03 10.03L18.53 8.52997L17.47 7.46997ZM12.75 12C12.75 11.138 13.0924 10.3114 13.7019 9.70187C14.3114 9.09238 15.138 8.74997 16 8.74997V7.24997C14.7402 7.24997 13.532 7.75042 12.6412 8.64121C11.7504 9.53201 11.25 10.7402 11.25 12H12.75Z" fill="#26282B"/>
<path d="M11.2501 18C11.2501 18.1989 11.3291 18.3897 11.4697 18.5304C11.6104 18.671 11.8012 18.75 12.0001 18.75C12.199 18.75 12.3898 18.671 12.5304 18.5304C12.6711 18.3897 12.7501 18.1989 12.7501 18H11.2501ZM6.00007 8.00003L5.47007 7.47003C5.32962 7.61065 5.25073 7.80128 5.25073 8.00003C5.25073 8.19878 5.32962 8.3894 5.47007 8.53003L6.00007 8.00003ZM8.03007 7.03003C8.16255 6.88785 8.23468 6.69981 8.23125 6.50551C8.22782 6.31121 8.14911 6.12582 8.01169 5.98841C7.87428 5.85099 7.6889 5.77228 7.4946 5.76885C7.30029 5.76543 7.11225 5.83755 6.97007 5.97003L8.03007 7.03003ZM6.97007 10.03C7.03873 10.1037 7.12153 10.1628 7.21353 10.2038C7.30553 10.2448 7.40485 10.2668 7.50555 10.2686C7.60625 10.2704 7.70628 10.2519 7.79967 10.2142C7.89306 10.1764 7.97789 10.1203 8.04911 10.0491C8.12033 9.97785 8.17647 9.89302 8.2142 9.79963C8.25192 9.70624 8.27044 9.60621 8.26866 9.50551C8.26689 9.4048 8.24485 9.30549 8.20385 9.21349C8.16286 9.12149 8.10376 9.03869 8.03007 8.97003L6.97007 10.03ZM12.7501 18V12H11.2501V18H12.7501ZM8.00007 7.25003H6.00007V8.75003H8.00007V7.25003ZM6.53007 8.53003L8.03007 7.03003L6.97007 5.97003L5.47007 7.47003L6.53007 8.53003ZM5.47007 8.53003L6.97007 10.03L8.03007 8.97003L6.53007 7.47003L5.47007 8.53003ZM12.7501 12C12.7501 10.7403 12.2496 9.53207 11.3588 8.64127C10.468 7.75047 9.25985 7.25003 8.00007 7.25003V8.75003C8.86203 8.75003 9.68868 9.09244 10.2982 9.70193C10.9077 10.3114 11.2501 11.1381 11.2501 12H12.7501Z" fill="#26282B"/>
</svg>
