<svg width="24" height="25" viewBox="0 0 24 25" fill="none" xmlns="http://www.w3.org/2000/svg">
<path fill-rule="evenodd" clip-rule="evenodd" d="M12 1.5C11.3787 1.5 10.875 2.00368 10.875 2.625C10.875 3.24632 11.3787 3.75 12 3.75C12.6213 3.75 13.125 3.24632 13.125 2.625C13.125 2.00368 12.6213 1.5 12 1.5ZM9.375 2.625C9.375 1.17525 10.5503 0 12 0C13.4497 0 14.625 1.17525 14.625 2.625C14.625 4.07475 13.4497 5.25 12 5.25C10.5503 5.25 9.375 4.07475 9.375 2.625Z" fill="#26282B"/>
<path fill-rule="evenodd" clip-rule="evenodd" d="M19.8143 6.76246L19.7926 6.77C19.7597 6.7814 19.7119 6.79778 19.6504 6.81845C19.5273 6.85976 19.3491 6.91822 19.1248 6.98809C18.6765 7.12775 18.0427 7.31353 17.2965 7.49933C15.8138 7.86853 13.8471 8.24812 12.0001 8.24812C10.153 8.24812 8.17462 7.86686 6.68079 7.4962C5.92892 7.30964 5.28942 7.1231 4.83694 6.9829C4.61055 6.91276 4.43056 6.85408 4.30626 6.81261C4.2441 6.79188 4.19583 6.77544 4.16262 6.76401L4.14601 6.75826C4.03344 6.7343 3.9343 6.76394 3.86541 6.81874C3.79874 6.87177 3.73976 6.96438 3.74877 7.11906C3.75351 7.19762 3.77889 7.25244 3.85787 7.32117C3.95618 7.40671 4.12043 7.49323 4.35928 7.57311L8.69332 8.97548C8.70467 8.97915 8.71593 8.98309 8.72709 8.9873C9.30678 9.20593 9.95017 9.58782 10.2493 10.3627C10.4083 10.7718 10.4504 11.2256 10.4452 11.6529C10.4398 12.0869 10.3844 12.5442 10.3139 12.9833C10.3124 12.9925 10.3107 13.0017 10.3089 13.0108L10.0324 14.3997L10.028 14.4201L8.27317 22.1092C8.26271 22.1524 8.26724 22.2328 8.33249 22.3259C8.39713 22.4181 8.49191 22.478 8.58548 22.4943C8.68039 22.5109 8.74984 22.4903 8.81534 22.4415C8.89148 22.3849 8.97942 22.2733 9.03398 22.098L9.03646 22.09L10.7662 16.744C10.863 16.4451 10.9486 16.1428 11.0229 15.8374L11.2716 14.8217C11.3537 14.4861 11.6544 14.2501 11.9999 14.25C12.3454 14.2499 12.6462 14.4858 12.7285 14.8213L12.9985 15.9219C13.0594 16.1706 13.1294 16.4166 13.2084 16.6596L14.9732 22.1068C15.0236 22.2721 15.1094 22.382 15.1876 22.4396C15.2564 22.4904 15.3295 22.511 15.424 22.4944C15.654 22.454 15.7632 22.2579 15.7303 22.0927L13.9783 14.4169L13.9739 14.3965L13.6973 13.0076C13.6955 12.9984 13.6939 12.9892 13.6924 12.98C13.6209 12.535 13.5683 12.0552 13.5758 11.6048C13.583 11.1717 13.646 10.6797 13.8746 10.268C14.0824 9.88873 14.419 9.62788 14.6928 9.45815C14.9791 9.28064 15.2752 9.15519 15.4867 9.07587L15.4944 9.073L19.6186 7.57754C19.6185 7.5776 19.6188 7.57747 19.6186 7.57754C19.9324 7.46338 20.096 7.38611 20.1882 7.30988C20.2231 7.28102 20.2323 7.26399 20.2354 7.2576C20.2381 7.25211 20.2501 7.22664 20.2501 7.16015C20.2501 7.00631 20.1856 6.87867 20.1117 6.81223C20.078 6.78189 20.0419 6.76309 20.0015 6.7538C19.9644 6.74527 19.9041 6.74031 19.8143 6.76246ZM4.60966 5.33139L4.61116 5.33192L4.61857 5.33452L4.65067 5.34563C4.6796 5.35559 4.72339 5.37051 4.78089 5.38969C4.8959 5.42805 5.06564 5.48341 5.2809 5.55011C5.71173 5.6836 6.3232 5.86198 7.04203 6.04035C8.48961 6.39953 10.3315 6.74812 12.0001 6.74812C13.6687 6.74812 15.4989 6.40114 16.9341 6.04378C17.6469 5.86629 18.2523 5.6888 18.6786 5.55599C18.8916 5.48963 19.0594 5.43457 19.1731 5.39641C19.2299 5.37734 19.2732 5.36251 19.3017 5.35262L19.3334 5.34158L19.3406 5.33902L19.3421 5.3385M19.3421 5.3385C19.3589 5.33253 19.376 5.32711 19.3931 5.32235C20.0565 5.13808 20.6742 5.30056 21.115 5.69716C21.5334 6.07357 21.7501 6.6207 21.7501 7.16015C21.7501 7.73017 21.5108 8.16259 21.144 8.46588C20.8261 8.72875 20.4268 8.87968 20.1315 8.98713L16.0098 10.4817C15.847 10.5429 15.6526 10.6279 15.4832 10.733C15.3008 10.8461 15.2167 10.94 15.19 10.989L15.1863 10.9958C15.1352 11.0874 15.0813 11.2861 15.0756 11.6296C15.0702 11.9533 15.1081 12.332 15.1712 12.7286L15.443 14.0933L17.1967 21.7766C17.4238 22.8434 16.6798 23.7969 15.6834 23.9718C14.5933 24.1632 13.8005 23.3941 13.5404 22.5513L12.0011 17.8L10.4648 22.5482C10.2022 23.3861 9.42478 24.1638 8.32719 23.9719C7.33356 23.7982 6.56764 22.794 6.81388 21.7618L8.56328 14.0966L8.83504 12.7318C8.89924 12.3296 8.9413 11.9591 8.9453 11.6345C8.94941 11.2998 8.91193 11.0621 8.85104 10.9057L8.85009 10.9033C8.775 10.7084 8.60664 10.5476 8.21357 10.3968L3.8879 8.99716C3.29651 8.80002 2.31888 8.33884 2.25141 7.2081C2.17327 5.87971 3.37641 5.00007 4.55271 5.31375C4.57185 5.31886 4.59098 5.32479 4.60966 5.33139C4.60962 5.33138 4.60971 5.33141 4.60966 5.33139" fill="#26282B"/>
</svg>
