<svg width="24" height="24" viewBox="0 0 24 24" fill="none" xmlns="http://www.w3.org/2000/svg">
<path d="M12 2.06818C6.51481 2.06818 2.06818 6.51481 2.06818 12C2.06818 17.4852 6.51481 21.9318 12 21.9318C17.4852 21.9318 21.9318 17.4852 21.9318 12C21.9318 6.51481 17.4852 2.06818 12 2.06818ZM1.93182 12C1.93182 6.4395 6.4395 1.93182 12 1.93182C17.5605 1.93182 22.0682 6.4395 22.0682 12C22.0682 17.5605 17.5605 22.0682 12 22.0682C6.4395 22.0682 1.93182 17.5605 1.93182 12ZM8.94523 15.9594C8.96765 15.9291 9.01035 15.9228 9.0406 15.9452C9.87993 16.5674 10.9 16.9318 12 16.9318C13.1 16.9318 14.1201 16.5674 14.9594 15.9452C14.9897 15.9228 15.0324 15.9291 15.0548 15.9594C15.0772 15.9897 15.0709 16.0324 15.0406 16.0548C14.1791 16.6934 13.1308 17.0682 12 17.0682C10.8692 17.0682 9.8209 16.6934 8.9594 16.0548C8.92915 16.0324 8.9228 15.9897 8.94523 15.9594ZM15.3182 10.5C15.3182 10.7984 15.2363 11.0377 15.1398 11.1825C15.0681 11.29 15.0154 11.3131 15 11.3175C14.9846 11.3131 14.9319 11.29 14.8602 11.1825C14.7637 11.0377 14.6818 10.7984 14.6818 10.5C14.6818 10.2016 14.7637 9.96233 14.8602 9.81754C14.9319 9.70998 14.9846 9.68694 15 9.68247C15.0154 9.68694 15.0681 9.70999 15.1398 9.81755C15.2363 9.96233 15.3182 10.2016 15.3182 10.5ZM14.9953 11.3185C14.9953 11.3185 14.9959 11.3184 14.997 11.3183L14.9953 11.3185ZM15.003 11.3183C15.0041 11.3184 15.0047 11.3185 15.0047 11.3185L15.003 11.3183ZM15.0047 9.68149C15.0047 9.68153 15.0041 9.68164 15.003 9.68172L15.0047 9.68149ZM14.997 9.68172C14.9959 9.68164 14.9953 9.68153 14.9953 9.68149L14.997 9.68172ZM9.31818 10.5C9.31818 10.7984 9.23632 11.0377 9.1398 11.1825C9.06809 11.29 9.01544 11.3131 9 11.3175C8.98455 11.3131 8.93191 11.29 8.8602 11.1825C8.76368 11.0377 8.68182 10.7984 8.68182 10.5C8.68182 10.2016 8.76368 9.96233 8.8602 9.81754C8.93191 9.70998 8.98456 9.68694 9 9.68247C9.01545 9.68694 9.06809 9.70998 9.1398 9.81754C9.23632 9.96233 9.31818 10.2016 9.31818 10.5ZM8.99534 11.3185C8.99533 11.3185 8.99587 11.3184 8.99701 11.3183L8.99534 11.3185ZM9.00298 11.3183C9.00412 11.3184 9.00467 11.3185 9.00466 11.3185L9.00298 11.3183ZM9.00466 9.68149C9.00466 9.68153 9.00412 9.68164 9.00299 9.68172L9.00466 9.68149ZM8.99702 9.68172C8.99588 9.68164 8.99533 9.68153 8.99534 9.68149L8.99702 9.68172Z" fill="#26282B" stroke="#26282B" stroke-width="1.36364"/>
</svg>
