<svg width="24" height="24" viewBox="0 0 24 24" fill="none" xmlns="http://www.w3.org/2000/svg">
<path d="M11.2 10.9334H8.19995C6.60865 10.9334 5.08253 10.3012 3.95731 9.17599C2.83209 8.05077 2.19995 6.52465 2.19995 4.93335V2.93335H5.19995C6.79125 2.93335 8.31737 3.56549 9.44259 4.69071C10.5678 5.81593 11.2 7.34205 11.2 8.93335V18.9334M11.2 12.9334C11.2 11.3421 11.8321 9.81593 12.9573 8.69071C14.0825 7.56549 15.6087 6.93335 17.2 6.93335H20.2V7.93335C20.2 9.52465 19.5678 11.0508 18.4426 12.176C17.3174 13.3012 15.7913 13.9334 14.2 13.9334H11.2" stroke="#26282B" stroke-width="2.72727" stroke-linecap="round" stroke-linejoin="round"/>
</svg>
