<svg width="28" height="28" viewBox="0 0 28 28" fill="none" xmlns="http://www.w3.org/2000/svg">
<path d="M11.0834 6.41667C11.0834 7.19021 11.3907 7.93208 11.9377 8.47906C12.4847 9.02604 13.2265 9.33333 14.0001 9.33333C14.7736 9.33333 15.5155 9.02604 16.0625 8.47906C16.6095 7.93208 16.9167 7.19021 16.9167 6.41667C16.9167 5.64312 16.6095 4.90125 16.0625 4.35427C15.5155 3.80729 14.7736 3.5 14.0001 3.5C13.2265 3.5 12.4847 3.80729 11.9377 4.35427C11.3907 4.90125 11.0834 5.64312 11.0834 6.41667Z" stroke="#26282B" stroke-width="2" stroke-linecap="round" stroke-linejoin="round"/>
<path d="M14 24.9293L19.9442 18.984C20.2823 18.6502 20.551 18.2529 20.735 17.8149C20.9189 17.3769 21.0144 16.9068 21.0159 16.4317C21.0175 15.9566 20.925 15.486 20.7439 15.0468C20.5628 14.6076 20.2967 14.2085 19.9607 13.8726C19.6248 13.5367 19.2258 13.2705 18.7866 13.0894C18.3474 12.9083 17.8767 12.8159 17.4016 12.8174C16.9265 12.8189 16.4565 12.9144 16.0185 13.0984C15.5804 13.2823 15.1831 13.551 14.8494 13.8891L14 14.7373L13.1507 13.8891C12.817 13.551 12.4196 13.2823 11.9816 13.0984C11.5436 12.9144 11.0735 12.8189 10.5985 12.8174C10.1234 12.8159 9.65271 12.9083 9.2135 13.0894C8.7743 13.2705 8.37525 13.5367 8.03933 13.8726C7.7034 14.2085 7.43723 14.6076 7.25614 15.0468C7.07505 15.486 6.98261 15.9566 6.98415 16.4317C6.98569 16.9068 7.08117 17.3769 7.2651 17.8149C7.44903 18.2529 7.71778 18.6502 8.05587 18.984L14 24.9293Z" stroke="#26282B" stroke-width="2" stroke-linecap="round" stroke-linejoin="round"/>
</svg>
