<svg width="28" height="28" viewBox="0 0 28 28" fill="none" xmlns="http://www.w3.org/2000/svg">
<path d="M24.5 13.9995C24.4999 11.8736 23.8545 9.79786 22.6492 8.0467C21.4438 6.29553 19.7353 4.95149 17.7496 4.19233C15.7639 3.43316 13.5945 3.29463 11.5283 3.79506C9.46219 4.29549 7.5966 5.4113 6.17831 6.99493C4.76002 8.57855 3.85584 10.5554 3.58535 12.664C3.31486 14.7726 3.69079 16.9137 4.66344 18.804C5.63609 20.6944 7.15963 22.2449 9.03257 23.2507C10.9055 24.2564 13.0396 24.6699 15.1527 24.4365M10.5 11.6667H10.5117M17.5 11.6667H17.5117M11.0833 17.5C11.5104 17.9104 12.0197 18.2256 12.5776 18.4247C13.1355 18.6238 13.7292 18.7023 14.3197 18.655M22.1594 25.0828L25.097 22.0728C25.4616 21.6952 25.6658 21.191 25.6666 20.6661C25.6675 20.1413 25.465 19.6364 25.1017 19.2576C24.925 19.073 24.7128 18.9259 24.4778 18.8253C24.2429 18.7246 23.99 18.6725 23.7344 18.6719C23.4789 18.6714 23.2258 18.7225 22.9904 18.8221C22.755 18.9217 22.5422 19.0679 22.3647 19.2518L22.1687 19.4524L21.9727 19.2518C21.7959 19.0672 21.5836 18.9202 21.3486 18.8197C21.1137 18.7192 20.8608 18.6671 20.6052 18.6667C20.3496 18.6662 20.0966 18.7174 19.8612 18.8172C19.6259 18.9169 19.4131 19.0631 19.2357 19.2471C18.8715 19.6247 18.6675 20.1286 18.6667 20.6532C18.6658 21.1778 18.8681 21.6824 19.231 22.0611L22.1594 25.0828Z" stroke="#26282B" stroke-width="2" stroke-linecap="round" stroke-linejoin="round"/>
</svg>
