<svg width="24" height="24" viewBox="0 0 24 24" fill="none" xmlns="http://www.w3.org/2000/svg">
<path d="M20.9199 6.62C20.8723 6.49725 20.801 6.38511 20.7099 6.29L17.7099 3.29C17.6167 3.19676 17.506 3.1228 17.3842 3.07234C17.2624 3.02188 17.1318 2.99591 16.9999 2.99591C16.7336 2.99591 16.4782 3.1017 16.2899 3.29C16.1016 3.47831 15.9958 3.7337 15.9958 4C15.9958 4.2663 16.1016 4.5217 16.2899 4.71L17.5899 6H8.99994C8.20429 6 7.44123 6.31607 6.87862 6.87868C6.31601 7.44129 5.99994 8.20435 5.99994 9V17.59L4.70994 16.29C4.52164 16.1017 4.26624 15.9959 3.99994 15.9959C3.73364 15.9959 3.47825 16.1017 3.28994 16.29C3.10164 16.4783 2.99585 16.7337 2.99585 17C2.99585 17.2663 3.10164 17.5217 3.28994 17.71L6.28994 20.71C6.38505 20.801 6.49719 20.8724 6.61994 20.92C6.73964 20.9729 6.86907 21.0002 6.99994 21.0002C7.13081 21.0002 7.26024 20.9729 7.37994 20.92C7.50269 20.8724 7.61484 20.801 7.70994 20.71L10.7099 17.71C10.8982 17.5217 11.004 17.2663 11.004 17C11.004 16.7337 10.8982 16.4783 10.7099 16.29C10.5216 16.1017 10.2662 15.9959 9.99994 15.9959C9.73364 15.9959 9.47824 16.1017 9.28994 16.29L7.99994 17.59V9C7.99994 8.73479 8.1053 8.48043 8.29283 8.2929C8.48037 8.10536 8.73472 8 8.99994 8H17.5899L16.2899 9.29C16.1962 9.38297 16.1218 9.49357 16.071 9.61543C16.0203 9.73728 15.9941 9.86799 15.9941 10C15.9941 10.132 16.0203 10.2627 16.071 10.3846C16.1218 10.5064 16.1962 10.617 16.2899 10.71C16.3829 10.8037 16.4935 10.8781 16.6154 10.9289C16.7372 10.9797 16.8679 11.0058 16.9999 11.0058C17.132 11.0058 17.2627 10.9797 17.3845 10.9289C17.5064 10.8781 17.617 10.8037 17.7099 10.71L20.7099 7.71C20.801 7.6149 20.8723 7.50275 20.9199 7.38C21.02 7.13654 21.02 6.86346 20.9199 6.62Z" fill="#26282B"/>
</svg>
