<svg width="24" height="24" viewBox="0 0 24 24" fill="none" xmlns="http://www.w3.org/2000/svg">
<path d="M17.87 8.60001C17.7955 8.42872 17.6745 8.28173 17.5208 8.17569C17.367 8.06964 17.1866 8.00878 17 8.00001H12.42L13.69 3.26001C13.7305 3.11168 13.7362 2.95603 13.7067 2.80514C13.6772 2.65425 13.6134 2.5122 13.52 2.39001C13.4259 2.26765 13.3046 2.16876 13.1658 2.1011C13.027 2.03344 12.8745 1.99884 12.72 2.00001H5.72005C5.49428 1.99227 5.27255 2.06121 5.09097 2.19558C4.90938 2.32995 4.77865 2.52184 4.72005 2.74001L2.04005 12.74C1.99927 12.8911 1.99451 13.0496 2.02615 13.2028C2.05779 13.356 2.12494 13.4997 2.2222 13.6223C2.31947 13.7448 2.44414 13.8428 2.58618 13.9084C2.72822 13.9741 2.88368 14.0054 3.04005 14H6.89005L5.08005 20.74C5.02074 20.9573 5.03657 21.1883 5.12495 21.3956C5.21333 21.6028 5.3691 21.7741 5.56701 21.8817C5.76491 21.9894 5.99337 22.027 6.21535 21.9886C6.43733 21.9502 6.63983 21.8379 6.79005 21.67L17.69 9.67001C17.8198 9.52789 17.9059 9.35134 17.9378 9.16154C17.9697 8.97175 17.9462 8.77677 17.87 8.60001ZM8.08005 17.28L9.16005 13.28C9.20516 13.1295 9.21419 12.9705 9.18639 12.8159C9.15859 12.6613 9.09475 12.5154 9.00005 12.39C8.90484 12.2663 8.782 12.1666 8.64134 12.0989C8.50069 12.0311 8.34613 11.9973 8.19005 12H4.35005L6.49005 4.00001H11.42L10.15 8.74001C10.1093 8.89106 10.1045 9.04958 10.1362 9.20281C10.1678 9.35604 10.2349 9.49971 10.3322 9.62226C10.4295 9.74482 10.5541 9.84284 10.6962 9.90845C10.8382 9.97405 10.9937 10.0054 11.15 10H14.72L8.08005 17.28ZM19 13H18C17.2044 13 16.4413 13.3161 15.8787 13.8787C15.3161 14.4413 15 15.2044 15 16V21C15 21.2652 15.1054 21.5196 15.2929 21.7071C15.4805 21.8946 15.7348 22 16 22C16.2653 22 16.5196 21.8946 16.7072 21.7071C16.8947 21.5196 17 21.2652 17 21V19H20V21C20 21.2652 20.1054 21.5196 20.2929 21.7071C20.4805 21.8946 20.7348 22 21 22C21.2653 22 21.5196 21.8946 21.7072 21.7071C21.8947 21.5196 22 21.2652 22 21V16C22 15.2044 21.684 14.4413 21.1214 13.8787C20.5588 13.3161 19.7957 13 19 13ZM20 17H17V16C17 15.7348 17.1054 15.4804 17.2929 15.2929C17.4805 15.1054 17.7348 15 18 15H19C19.2653 15 19.5196 15.1054 19.7072 15.2929C19.8947 15.4804 20 15.7348 20 16V17Z" fill="#26282B"/>
</svg>
