<svg width="24" height="24" viewBox="0 0 24 24" fill="none" xmlns="http://www.w3.org/2000/svg">
<path d="M20.4899 7.52C20.4843 7.49364 20.4843 7.46637 20.4899 7.44C20.4851 7.41692 20.4851 7.39309 20.4899 7.37V7.28L20.4299 7.13C20.4056 7.08907 20.3752 7.052 20.3399 7.02L20.2499 6.94H20.1999L16.2599 4.45L12.5399 2.15C12.4539 2.08173 12.3554 2.03079 12.2499 2H12.1699C12.0806 1.98509 11.9893 1.98509 11.8999 2H11.7999C11.6838 2.0257 11.5724 2.06957 11.4699 2.13L3.99995 6.78L3.90995 6.85L3.81995 6.93L3.71995 7L3.66995 7.06L3.60995 7.21V7.3V7.36C3.60023 7.42632 3.60023 7.49369 3.60995 7.56V16.29C3.60961 16.4599 3.65258 16.6272 3.73482 16.7759C3.81705 16.9246 3.93583 17.0499 4.07995 17.14L11.5799 21.78L11.7299 21.84H11.8099C11.9791 21.8937 12.1608 21.8937 12.3299 21.84H12.4099L12.5599 21.78L19.9999 17.21C20.1441 17.1199 20.2628 16.9946 20.3451 16.8459C20.4273 16.6972 20.4703 16.5299 20.4699 16.36V7.63C20.4699 7.63 20.4899 7.56 20.4899 7.52ZM11.9999 4.17L13.7799 5.27L8.18995 8.73L6.39995 7.63L11.9999 4.17ZM10.9999 19.17L5.49995 15.81V9.42L10.9999 12.82V19.17ZM11.9999 11.06L10.0899 9.91L15.6799 6.44L17.5999 7.63L11.9999 11.06ZM18.4999 15.78L12.9999 19.2V12.82L18.4999 9.42V15.78Z" fill="#26282B"/>
</svg>
