<svg width="24" height="24" viewBox="0 0 24 24" fill="none" xmlns="http://www.w3.org/2000/svg">
<path d="M21 14H19C18.7348 14 18.4804 14.1054 18.2929 14.2929C18.1054 14.4804 18 14.7348 18 15C18 15.2652 18.1054 15.5196 18.2929 15.7071C18.4804 15.8946 18.7348 16 19 16H20V20H4V16H11C11.2652 16 11.5196 15.8946 11.7071 15.7071C11.8946 15.5196 12 15.2652 12 15C12 14.7348 11.8946 14.4804 11.7071 14.2929C11.5196 14.1054 11.2652 14 11 14H10V8.99999C10 8.73478 9.89464 8.48042 9.70711 8.29289C9.51957 8.10535 9.26522 7.99999 9 7.99999H3C2.73478 7.99999 2.48043 8.10535 2.29289 8.29289C2.10536 8.48042 2 8.73478 2 8.99999V15V21C2 21.2652 2.10536 21.5196 2.29289 21.7071C2.48043 21.8946 2.73478 22 3 22H21C21.2652 22 21.5196 21.8946 21.7071 21.7071C21.8946 21.5196 22 21.2652 22 21V15C22 14.7348 21.8946 14.4804 21.7071 14.2929C21.5196 14.1054 21.2652 14 21 14ZM4 9.99999H8V14H4V9.99999ZM12.71 6.69999L14 5.40999V17C14 17.2652 14.1054 17.5196 14.2929 17.7071C14.4804 17.8946 14.7348 18 15 18C15.2652 18 15.5196 17.8946 15.7071 17.7071C15.8946 17.5196 16 17.2652 16 17V5.40999L17.29 6.69999C17.3826 6.79448 17.4931 6.86965 17.6149 6.92115C17.7368 6.97265 17.8677 6.99944 18 6.99999C18.1316 7.00076 18.2621 6.97553 18.3839 6.92577C18.5057 6.876 18.6166 6.80268 18.71 6.70999C18.8962 6.52263 19.0008 6.26918 19.0008 6.00499C19.0008 5.74081 18.8962 5.48736 18.71 5.29999L15.71 2.29999C15.617 2.20627 15.5064 2.13187 15.3846 2.0811C15.2627 2.03033 15.132 2.0042 15 2.0042C14.868 2.0042 14.7373 2.03033 14.6154 2.0811C14.4936 2.13187 14.383 2.20627 14.29 2.29999L11.29 5.29999C11.1037 5.48736 10.9992 5.74081 10.9992 6.00499C10.9992 6.26918 11.1037 6.52263 11.29 6.70999C11.3836 6.80307 11.4947 6.87669 11.617 6.9266C11.7392 6.97651 11.8701 7.00173 12.0021 7.0008C12.1341 6.99987 12.2646 6.97281 12.3861 6.92119C12.5076 6.86956 12.6177 6.79438 12.71 6.69999Z" fill="#26282B"/>
</svg>
