<svg width="24" height="24" viewBox="0 0 24 24" fill="none" xmlns="http://www.w3.org/2000/svg">
<path d="M3.70994 2.29C3.6167 2.19676 3.50601 2.1228 3.38419 2.07234C3.26237 2.02188 3.1318 1.99591 2.99994 1.99591C2.86808 1.99591 2.73751 2.02188 2.61569 2.07234C2.49387 2.1228 2.38318 2.19676 2.28994 2.29C2.10164 2.47831 1.99585 2.7337 1.99585 3C1.99585 3.2663 2.10164 3.5217 2.28994 3.71L5.08994 6.5H4.99994C4.20429 6.5 3.44123 6.81607 2.87862 7.37868C2.31601 7.94129 1.99994 8.70435 1.99994 9.5V17.5C1.99994 18.2957 2.31601 19.0587 2.87862 19.6213C3.44123 20.1839 4.20429 20.5 4.99994 20.5H19.0799L20.2899 21.72C20.3829 21.8137 20.4935 21.8881 20.6154 21.9389C20.7372 21.9897 20.8679 22.0158 20.9999 22.0158C21.132 22.0158 21.2627 21.9897 21.3845 21.9389C21.5064 21.8881 21.617 21.8137 21.7099 21.72C21.8037 21.627 21.8781 21.5164 21.9288 21.3946C21.9796 21.2727 22.0057 21.142 22.0057 21.01C22.0057 20.878 21.9796 20.7473 21.9288 20.6254C21.8781 20.5036 21.8037 20.393 21.7099 20.3L3.70994 2.29ZM10.1999 11.62L12.8799 14.3C12.6057 14.4328 12.3047 14.5012 11.9999 14.5C11.4695 14.5 10.9608 14.2893 10.5857 13.9142C10.2107 13.5391 9.99994 13.0304 9.99994 12.5C9.99869 12.1953 10.0671 11.8943 10.1999 11.62ZM4.99994 18.5C4.73472 18.5 4.48037 18.3946 4.29283 18.2071C4.1053 18.0196 3.99994 17.7652 3.99994 17.5V9.5C3.99994 9.23479 4.1053 8.98043 4.29283 8.7929C4.48037 8.60536 4.73472 8.5 4.99994 8.5H7.06994L8.76994 10.19C8.27457 10.8587 8.00489 11.6678 7.99994 12.5C7.99994 13.5609 8.42137 14.5783 9.17151 15.3284C9.92166 16.0786 10.9391 16.5 11.9999 16.5C12.8356 16.4972 13.6484 16.2274 14.3199 15.73L17.0899 18.5H4.99994ZM18.9999 6.5H17.7199L17.4099 5.5C17.2019 4.91161 16.8156 4.40274 16.3048 4.04425C15.7939 3.68577 15.184 3.49552 14.5599 3.5H10.1599C9.89472 3.5 9.64037 3.60536 9.45283 3.7929C9.2653 3.98043 9.15994 4.23479 9.15994 4.5C9.15994 4.76522 9.2653 5.01957 9.45283 5.20711C9.64037 5.39465 9.89472 5.5 10.1599 5.5H14.5599C14.7696 5.49946 14.9741 5.56482 15.1446 5.68684C15.315 5.80887 15.4429 5.98138 15.5099 6.18L16.0499 7.81C16.1153 8.01049 16.2424 8.18518 16.413 8.30911C16.5836 8.43303 16.7891 8.49985 16.9999 8.5H18.9999C19.2652 8.5 19.5195 8.60536 19.707 8.7929C19.8946 8.98043 19.9999 9.23479 19.9999 9.5V15.34C19.9999 15.6052 20.1053 15.8596 20.2928 16.0471C20.4804 16.2346 20.7347 16.34 20.9999 16.34C21.2652 16.34 21.5195 16.2346 21.707 16.0471C21.8946 15.8596 21.9999 15.6052 21.9999 15.34V9.5C21.9999 8.70435 21.6839 7.94129 21.1213 7.37868C20.5587 6.81607 19.7956 6.5 18.9999 6.5Z" fill="#26282B"/>
</svg>
