<svg width="24" height="24" viewBox="0 0 24 24" fill="none" xmlns="http://www.w3.org/2000/svg">
<path d="M8.49999 5.93998C9.56735 5.33522 10.7732 5.01735 12 5.01735C13.2268 5.01735 14.4326 5.33522 15.5 5.93998C15.6141 6.00609 15.7402 6.04898 15.871 6.06616C16.0018 6.08335 16.1347 6.07449 16.262 6.0401C16.3893 6.00571 16.5086 5.94646 16.613 5.86578C16.7173 5.78509 16.8047 5.68456 16.87 5.56998C17.0004 5.34036 17.0346 5.0685 16.9653 4.81371C16.896 4.55893 16.7287 4.34189 16.5 4.20998C15.1273 3.43352 13.5771 3.02545 12 3.02545C10.4229 3.02545 8.87268 3.43352 7.49999 4.20998C7.27126 4.34189 7.10398 4.55893 7.03467 4.81371C6.96535 5.0685 6.99962 5.34036 7.12999 5.56998C7.19532 5.68456 7.28267 5.78509 7.38702 5.86578C7.49137 5.94646 7.61064 6.00571 7.73798 6.0401C7.86532 6.07449 7.99821 6.08335 8.12899 6.06616C8.25977 6.04898 8.38585 6.00609 8.49999 5.93998ZM18.42 11.21C18.3161 10.9655 18.1958 10.7283 18.06 10.5C17.9914 10.3874 17.9011 10.2894 17.7945 10.2118C17.6879 10.1342 17.5669 10.0785 17.4387 10.0478C17.3104 10.0172 17.1773 10.0122 17.0471 10.0331C16.9169 10.0541 16.7921 10.1006 16.68 10.17C16.4553 10.3085 16.2945 10.5303 16.2327 10.787C16.1709 11.0436 16.213 11.3143 16.35 11.54C16.5046 11.8065 16.6319 12.0879 16.73 12.38C16.7871 12.5518 16.8899 12.7049 17.0273 12.8229C17.1647 12.9409 17.3315 13.0194 17.51 13.05C18.2058 13.17 18.837 13.5317 19.2925 14.0713C19.748 14.6109 19.9985 15.2938 20 16C20 16.7956 19.6839 17.5587 19.1213 18.1213C18.5587 18.6839 17.7956 19 17 19H5.65999C5.252 18.9372 4.87344 18.7497 4.57624 18.4632C4.27903 18.1768 4.07774 17.8054 3.99999 17.4C3.93992 17.106 3.94676 16.8023 4.01999 16.5114C4.09323 16.2204 4.23098 15.9497 4.42305 15.7192C4.61512 15.4887 4.85659 15.3044 5.12956 15.1799C5.40254 15.0554 5.70002 14.9939 5.99999 15C6.2652 15 6.51956 14.8946 6.70709 14.7071C6.89463 14.5195 6.99999 14.2652 6.99999 14C6.99798 13.1252 7.22926 12.2656 7.66999 11.51C7.73611 11.3958 7.77899 11.2698 7.79618 11.139C7.81336 11.0082 7.8045 10.8753 7.77011 10.748C7.73572 10.6206 7.67647 10.5014 7.59579 10.397C7.51511 10.2927 7.41458 10.2053 7.29999 10.14C7.07037 10.0096 6.79851 9.97534 6.54372 10.0447C6.28894 10.114 6.07191 10.2812 5.93999 10.51C5.47168 11.3072 5.17215 12.1922 5.05999 13.11C4.22563 13.3132 3.47881 13.7795 2.92999 14.44C2.46319 14.9881 2.15301 15.6521 2.03216 16.3619C1.9113 17.0717 1.98427 17.8009 2.24334 18.4727C2.50242 19.1444 2.93801 19.7338 3.50415 20.1786C4.0703 20.6234 4.746 20.9072 5.45999 21H5.58999H17C18.1993 20.9967 19.3576 20.5624 20.2634 19.7763C21.1692 18.9902 21.7623 17.9047 21.9344 16.7177C22.1066 15.5308 21.8464 14.3215 21.2012 13.3104C20.5561 12.2994 19.569 11.5539 18.42 11.21ZM14.87 8.99998C14.87 8.99998 14.87 8.99997 14.87 8.93997C14.9218 8.87923 14.9655 8.812 15 8.73997C15.0947 8.49327 15.0879 8.2191 14.9811 7.97738C14.8743 7.73567 14.6762 7.54605 14.43 7.44998C13.8707 7.24232 13.2849 7.1144 12.69 7.06998C12.59 7.06998 12.49 7.06998 12.39 7.06998C12.1204 7.04996 11.8496 7.04996 11.58 7.06998C11.4767 7.06463 11.3733 7.06463 11.27 7.06998C10.675 7.1144 10.0893 7.24232 9.52999 7.44998C9.29105 7.55363 9.10198 7.74642 9.003 7.98734C8.90402 8.22825 8.90294 8.49828 8.99999 8.73997C9.03406 8.80687 9.07423 8.87047 9.11999 8.92998C9.11668 8.96657 9.11668 9.00338 9.11999 9.03998C9.18615 9.15373 9.27412 9.2533 9.37884 9.33299C9.48356 9.41268 9.60298 9.47092 9.73026 9.50436C9.85753 9.53781 9.99016 9.5458 10.1205 9.52789C10.2509 9.50998 10.3765 9.46651 10.49 9.39997C10.9486 9.14426 11.4649 9.01003 11.99 9.01003C12.5151 9.01003 13.0314 9.14426 13.49 9.39997C13.6063 9.4665 13.7349 9.50896 13.868 9.52482C14.0011 9.54068 14.136 9.52963 14.2647 9.49231C14.3935 9.455 14.5134 9.39219 14.6174 9.30761C14.7213 9.22303 14.8072 9.11841 14.87 8.99998ZM11 12C11 12.1978 11.0586 12.3911 11.1685 12.5555C11.2784 12.72 11.4346 12.8482 11.6173 12.9239C11.8 12.9995 12.0011 13.0193 12.1951 12.9808C12.3891 12.9422 12.5672 12.8469 12.7071 12.7071C12.8469 12.5672 12.9422 12.389 12.9808 12.1951C13.0194 12.0011 12.9996 11.8 12.9239 11.6173C12.8482 11.4346 12.72 11.2784 12.5556 11.1685C12.3911 11.0586 12.1978 11 12 11C11.7348 11 11.4804 11.1053 11.2929 11.2929C11.1053 11.4804 11 11.7348 11 12Z" fill="#26282B"/>
</svg>
