<svg width="24" height="24" viewBox="0 0 24 24" fill="none" xmlns="http://www.w3.org/2000/svg">
<path d="M18.5001 5.5H14.5001C14.2348 5.5 13.9805 5.60536 13.793 5.79289C13.6054 5.98043 13.5001 6.23478 13.5001 6.5C13.5001 6.76522 13.6054 7.01957 13.793 7.20711C13.9805 7.39464 14.2348 7.5 14.5001 7.5H18.5001C18.7653 7.5 19.0196 7.60536 19.2072 7.79289C19.3947 7.98043 19.5001 8.23478 19.5001 8.5V18.22L17.9301 16.77C17.7456 16.5973 17.5027 16.5009 17.2501 16.5H8.50006C8.23484 16.5 7.98049 16.3946 7.79295 16.2071C7.60542 16.0196 7.50006 15.7652 7.50006 15.5V14.5C7.50006 14.2348 7.3947 13.9804 7.20717 13.7929C7.01963 13.6054 6.76528 13.5 6.50006 13.5C6.23484 13.5 5.98049 13.6054 5.79295 13.7929C5.60542 13.9804 5.50006 14.2348 5.50006 14.5V15.5C5.50006 16.2956 5.81613 17.0587 6.37874 17.6213C6.94135 18.1839 7.70441 18.5 8.50006 18.5H16.8601L19.8601 21.23C20.0445 21.4027 20.2874 21.4991 20.5401 21.5C20.6772 21.4985 20.8129 21.4714 20.9401 21.42C21.1189 21.3419 21.2711 21.2132 21.3777 21.0497C21.4843 20.8863 21.5407 20.6952 21.5401 20.5V8.5C21.5401 8.10264 21.4612 7.70924 21.3079 7.34263C21.1547 6.97603 20.9301 6.64352 20.6473 6.36441C20.3645 6.08531 20.029 5.86517 19.6604 5.71678C19.2918 5.56839 18.8974 5.4947 18.5001 5.5ZM9.08006 12.5H11.5001C11.7653 12.5 12.0196 12.3946 12.2072 12.2071C12.3947 12.0196 12.5001 11.7652 12.5001 11.5V9.08C12.5008 8.94839 12.4756 8.81793 12.4258 8.69609C12.3761 8.57425 12.3027 8.46344 12.2101 8.37L6.63006 2.79C6.4427 2.60375 6.18925 2.49921 5.92506 2.49921C5.66087 2.49921 5.40742 2.60375 5.22006 2.79L2.79006 5.22C2.60381 5.40736 2.49927 5.66081 2.49927 5.925C2.49927 6.18919 2.60381 6.44264 2.79006 6.63L8.37006 12.21C8.4635 12.3027 8.57432 12.376 8.69615 12.4258C8.81799 12.4755 8.94845 12.5008 9.08006 12.5ZM5.92006 4.91L10.5001 9.49V10.49H9.50006L4.91006 5.92L5.92006 4.91Z" fill="#26282B"/>
</svg>
