<svg width="24" height="24" viewBox="0 0 24 24" fill="none" xmlns="http://www.w3.org/2000/svg">
<path d="M20.67 9.68994L14 5.83994C13.5944 5.60694 13.1347 5.48458 12.6669 5.48511C12.1992 5.48564 11.7398 5.60905 11.3347 5.84297C10.9296 6.07689 10.5931 6.41313 10.3589 6.818C10.1247 7.22288 10.0009 7.68219 9.99998 8.14994L5.99997 5.83994C5.59438 5.60694 5.13469 5.48458 4.66694 5.48511C4.19918 5.48564 3.73977 5.60905 3.33471 5.84297C2.92965 6.07689 2.59315 6.41313 2.3589 6.818C2.12465 7.22288 2.00088 7.68219 1.99997 8.14994V15.8499C1.99754 16.3169 2.11945 16.776 2.35319 17.1802C2.58693 17.5844 2.92407 17.9191 3.32997 18.1499C3.73498 18.3921 4.19807 18.52 4.66998 18.5199C5.13704 18.5174 5.59541 18.3934 5.99997 18.1599L9.99998 15.8499C9.99783 16.3182 10.1198 16.7786 10.3534 17.1843C10.587 17.5901 10.924 17.9267 11.33 18.1599C11.7355 18.3953 12.1961 18.5192 12.665 18.5192C13.1339 18.5192 13.5944 18.3953 14 18.1599L20.67 14.3099C21.0748 14.0753 21.4108 13.7384 21.6444 13.333C21.8781 12.9275 22.001 12.4679 22.001 11.9999C22.001 11.532 21.8781 11.0723 21.6444 10.6669C21.4108 10.2615 21.0748 9.92459 20.67 9.68994ZM9.99998 13.5399L4.99997 16.4199C4.89901 16.4771 4.78492 16.5071 4.66889 16.5069C4.55286 16.5068 4.43887 16.4765 4.33806 16.419C4.23726 16.3615 4.1531 16.2789 4.09384 16.1791C4.03457 16.0794 4.00223 15.966 3.99997 15.8499V8.14994C4.00223 8.03393 4.03457 7.9205 4.09384 7.82075C4.1531 7.721 4.23726 7.63834 4.33806 7.58089C4.43887 7.52343 4.55286 7.49313 4.66889 7.49297C4.78492 7.4928 4.89901 7.52277 4.99997 7.57994L9.99998 10.4599V13.5399ZM19.67 12.5399L13 16.4299C12.8975 16.4869 12.7822 16.5167 12.665 16.5167C12.5477 16.5167 12.4325 16.4869 12.33 16.4299C12.2284 16.3713 12.1443 16.2867 12.0863 16.1847C12.0283 16.0828 11.9985 15.9672 12 15.8499V8.14994C11.9985 8.03266 12.0283 7.91711 12.0863 7.81516C12.1443 7.71322 12.2284 7.62858 12.33 7.56994C12.435 7.51445 12.5513 7.48367 12.67 7.47994C12.7862 7.47894 12.9004 7.51008 13 7.56994L19.67 11.4199C19.7717 11.4788 19.8562 11.5633 19.9149 11.6651C19.9736 11.767 20.0046 11.8824 20.0046 11.9999C20.0046 12.1175 19.9736 12.2329 19.9149 12.3347C19.8562 12.4365 19.7717 12.5211 19.67 12.5799V12.5399Z" fill="#26282B"/>
</svg>
