<svg width="24" height="24" viewBox="0 0 24 24" fill="none" xmlns="http://www.w3.org/2000/svg">
<path d="M21.78 3.62C21.8961 3.47365 21.9688 3.29773 21.99 3.11215C22.0112 2.92657 21.98 2.73876 21.9 2.57C21.8189 2.39983 21.6914 2.25603 21.5322 2.15518C21.373 2.05433 21.1885 2.00053 21 2H2.99999C2.8115 2.00053 2.627 2.05433 2.46776 2.15518C2.30853 2.25603 2.18103 2.39983 2.09999 2.57C2.01993 2.73876 1.98874 2.92657 2.00995 3.11215C2.03116 3.29773 2.10392 3.47365 2.21999 3.62L11 14.6V20H5.24999C4.98477 20 4.73042 20.1054 4.54288 20.2929C4.35534 20.4804 4.24999 20.7348 4.24999 21C4.24999 21.2652 4.35534 21.5196 4.54288 21.7071C4.73042 21.8946 4.98477 22 5.24999 22H18.75C19.0152 22 19.2696 21.8946 19.4571 21.7071C19.6446 21.5196 19.75 21.2652 19.75 21C19.75 20.7348 19.6446 20.4804 19.4571 20.2929C19.2696 20.1054 19.0152 20 18.75 20H13V14.6L21.78 3.62ZM5.07999 4H18.92L16.52 7H7.51999L5.07999 4ZM12 12.65L9.07999 9H14.92L12 12.65Z" fill="#26282B"/>
</svg>
