<svg width="24" height="24" viewBox="0 0 24 24" fill="none" xmlns="http://www.w3.org/2000/svg">
<path d="M19.75 2.33003C19.6554 2.22518 19.5396 2.14156 19.4103 2.08468C19.2811 2.02781 19.1412 1.99895 19 2.00003H4.99999C4.85876 1.99895 4.71891 2.02781 4.58963 2.08468C4.46036 2.14156 4.34461 2.22518 4.24999 2.33003C4.15562 2.43503 4.08455 2.55882 4.04146 2.69326C3.99837 2.8277 3.98424 2.96974 3.99999 3.11003L5.79999 19.33C5.88155 20.0672 6.23329 20.748 6.7873 21.2411C7.34132 21.7341 8.05834 22.0045 8.79999 22H15.22C15.9616 22.0045 16.6787 21.7341 17.2327 21.2411C17.7867 20.748 18.1384 20.0672 18.22 19.33L20 3.11003C20.0157 2.96974 20.0016 2.8277 19.9585 2.69326C19.9154 2.55882 19.8444 2.43503 19.75 2.33003ZM16.2 19.11C16.1728 19.3557 16.0556 19.5827 15.8709 19.747C15.6862 19.9114 15.4472 20.0015 15.2 20H8.78999C8.54277 20.0015 8.30376 19.9114 8.11909 19.747C7.93442 19.5827 7.81717 19.3557 7.78999 19.11L6.77999 10H17.22L16.2 19.11ZM17.44 8.00003H6.55999L6.11999 4.00003H17.88L17.44 8.00003Z" fill="#26282B"/>
</svg>
