<svg width="24" height="24" viewBox="0 0 24 24" fill="none" xmlns="http://www.w3.org/2000/svg">
<path d="M13 11H1.99999C1.73477 11 1.48042 11.1054 1.29288 11.2929C1.10535 11.4804 0.999989 11.7348 0.999989 12V21C0.999989 21.2652 1.10535 21.5196 1.29288 21.7071C1.48042 21.8946 1.73477 22 1.99999 22H12.86C12.91 22 12.95 22 13 22C13.2652 22 13.5196 21.8946 13.7071 21.7071C13.8946 21.5196 14 21.2652 14 21V12C14 11.7348 13.8946 11.4804 13.7071 11.2929C13.5196 11.1054 13.2652 11 13 11ZM7.43999 20L9.36999 18.07C9.39735 18.0287 9.4345 17.9949 9.47812 17.9715C9.52175 17.9481 9.57048 17.9358 9.61999 17.9358C9.66949 17.9358 9.71823 17.9481 9.76185 17.9715C9.80547 17.9949 9.84262 18.0287 9.86999 18.07L11.79 20H7.43999ZM12 17.38L11.28 16.67C10.8316 16.2415 10.2352 16.0024 9.61499 16.0024C8.99476 16.0024 8.3984 16.2415 7.94999 16.67L4.60999 20H2.99999V13H12V17.38ZM1.99999 4.11C2.17353 4.10997 2.34408 4.06478 2.49487 3.97886C2.64565 3.89295 2.77148 3.76928 2.85999 3.62C2.98715 3.43856 3.05366 3.22154 3.04999 3C3.05016 2.86436 3.02273 2.73011 2.96938 2.6054C2.91603 2.4807 2.83787 2.36815 2.73964 2.27461C2.64142 2.18107 2.5252 2.10848 2.39804 2.06127C2.27089 2.01407 2.13546 1.99322 1.99999 2C1.73477 2 1.48042 2.10536 1.29288 2.29289C1.10535 2.48043 0.999989 2.73478 0.999989 3V3.1C0.998667 3.23216 1.02356 3.36327 1.07322 3.48575C1.12288 3.60824 1.19633 3.71966 1.28932 3.81358C1.38231 3.9075 1.493 3.98206 1.61498 4.03293C1.73696 4.08381 1.86782 4.11001 1.99999 4.11ZM9.90999 4H10.1C10.3652 4 10.6196 3.89464 10.8071 3.70711C10.9946 3.51957 11.1 3.26522 11.1 3C11.1 2.73478 10.9946 2.48043 10.8071 2.29289C10.6196 2.10536 10.3652 2 10.1 2H9.90999C9.64477 2 9.39042 2.10536 9.20288 2.29289C9.01535 2.48043 8.90999 2.73478 8.90999 3C8.90999 3.26522 9.01535 3.51957 9.20288 3.70711C9.39042 3.89464 9.64477 4 9.90999 4ZM1.99999 8.78C2.26521 8.78 2.51956 8.67464 2.7071 8.48711C2.89463 8.29957 2.99999 8.04522 2.99999 7.78V7.56C2.99999 7.29478 2.89463 7.04043 2.7071 6.85289C2.51956 6.66536 2.26521 6.56 1.99999 6.56C1.73477 6.56 1.48042 6.66536 1.29288 6.85289C1.10535 7.04043 0.999989 7.29478 0.999989 7.56V7.78C0.999989 8.04522 1.10535 8.29957 1.29288 8.48711C1.48042 8.67464 1.73477 8.78 1.99999 8.78ZM14.09 2H13.9C13.6348 2 13.3804 2.10536 13.1929 2.29289C13.0053 2.48043 12.9 2.73478 12.9 3C12.9 3.26522 13.0053 3.51957 13.1929 3.70711C13.3804 3.89464 13.6348 4 13.9 4H14.09C14.3552 4 14.6096 3.89464 14.7971 3.70711C14.9846 3.51957 15.09 3.26522 15.09 3C15.09 2.73478 14.9846 2.48043 14.7971 2.29289C14.6096 2.10536 14.3552 2 14.09 2ZM5.90999 4H6.09999C6.36521 4 6.61956 3.89464 6.8071 3.70711C6.99463 3.51957 7.09999 3.26522 7.09999 3C7.09999 2.73478 6.99463 2.48043 6.8071 2.29289C6.61956 2.10536 6.36521 2 6.09999 2H5.90999C5.64477 2 5.39042 2.10536 5.20288 2.29289C5.01535 2.48043 4.90999 2.73478 4.90999 3C4.90999 3.26522 5.01535 3.51957 5.20288 3.70711C5.39042 3.89464 5.64477 4 5.90999 4ZM22 6.4C21.7348 6.4 21.4804 6.50536 21.2929 6.69289C21.1053 6.88043 21 7.13478 21 7.4V7.61C21 7.87522 21.1053 8.12957 21.2929 8.31711C21.4804 8.50464 21.7348 8.61 22 8.61C22.2652 8.61 22.5196 8.50464 22.7071 8.31711C22.8946 8.12957 23 7.87522 23 7.61V7.4C23 7.13478 22.8946 6.88043 22.7071 6.69289C22.5196 6.50536 22.2652 6.4 22 6.4ZM17.12 20H16.88C16.6148 20 16.3604 20.1054 16.1729 20.2929C15.9853 20.4804 15.88 20.7348 15.88 21C15.88 21.2652 15.9853 21.5196 16.1729 21.7071C16.3604 21.8946 16.6148 22 16.88 22H17.12C17.3852 22 17.6396 21.8946 17.8271 21.7071C18.0146 21.5196 18.12 21.2652 18.12 21C18.12 20.7348 18.0146 20.4804 17.8271 20.2929C17.6396 20.1054 17.3852 20 17.12 20ZM21.9 2C21.6525 2.02487 21.4231 2.14111 21.2567 2.32602C21.0903 2.51093 20.9987 2.75123 21 3C21.0023 3.14561 21.0365 3.28895 21.1 3.42C21.1921 3.61755 21.3462 3.7796 21.5389 3.88149C21.7316 3.98338 21.9523 4.01952 22.1674 3.98442C22.3825 3.94933 22.5802 3.84491 22.7305 3.68706C22.8808 3.52921 22.9755 3.32658 23 3.11V3C22.9772 2.72505 22.8511 2.46896 22.6469 2.28338C22.4428 2.0978 22.1759 1.99653 21.9 2ZM22 10.9C21.7348 10.9 21.4804 11.0054 21.2929 11.1929C21.1053 11.3804 21 11.6348 21 11.9V12.12C21 12.3852 21.1053 12.6396 21.2929 12.8271C21.4804 13.0146 21.7348 13.12 22 13.12C22.2652 13.12 22.5196 13.0146 22.7071 12.8271C22.8946 12.6396 23 12.3852 23 12.12V11.9C23 11.6348 22.8946 11.3804 22.7071 11.1929C22.5196 11.0054 22.2652 10.9 22 10.9ZM18.09 2H17.9C17.6348 2 17.3804 2.10536 17.1929 2.29289C17.0053 2.48043 16.9 2.73478 16.9 3C16.9 3.26522 17.0053 3.51957 17.1929 3.70711C17.3804 3.89464 17.6348 4 17.9 4H18.09C18.3552 4 18.6096 3.89464 18.7971 3.70711C18.9846 3.51957 19.09 3.26522 19.09 3C19.09 2.73478 18.9846 2.48043 18.7971 2.29289C18.6096 2.10536 18.3552 2 18.09 2ZM22 20C21.8465 19.9998 21.6953 20.0376 21.56 20.11C21.3932 20.1917 21.2525 20.3183 21.1536 20.4755C21.0547 20.6326 21.0015 20.8143 21 21C21 21.2652 21.1053 21.5196 21.2929 21.7071C21.4804 21.8946 21.7348 22 22 22C22.2749 21.9772 22.531 21.8511 22.7166 21.6469C22.9022 21.4428 23.0035 21.1759 23 20.9C22.9751 20.6525 22.8589 20.4231 22.674 20.2567C22.4891 20.0903 22.2488 19.9988 22 20ZM22 15.44C21.7348 15.44 21.4804 15.5454 21.2929 15.7329C21.1053 15.9204 21 16.1748 21 16.44V16.66C21 16.9252 21.1053 17.1796 21.2929 17.3671C21.4804 17.5546 21.7348 17.66 22 17.66C22.2652 17.66 22.5196 17.5546 22.7071 17.3671C22.8946 17.1796 23 16.9252 23 16.66V16.4C23 16.1348 22.8946 15.8804 22.7071 15.6929C22.5196 15.5054 22.2652 15.4 22 15.4V15.44Z" fill="#26282B"/>
</svg>
