<svg width="24" height="24" viewBox="0 0 24 24" fill="none" xmlns="http://www.w3.org/2000/svg">
<path d="M3.00003 8.1C3.26524 8.1 3.5196 7.99464 3.70713 7.8071C3.89467 7.61957 4.00003 7.36521 4.00003 7.1V6.91C4.00003 6.64478 3.89467 6.39043 3.70713 6.20289C3.5196 6.01535 3.26524 5.91 3.00003 5.91C2.73481 5.91 2.48045 6.01535 2.29292 6.20289C2.10538 6.39043 2.00003 6.64478 2.00003 6.91V7.1C2.00003 7.36521 2.10538 7.61957 2.29292 7.8071C2.48045 7.99464 2.73481 8.1 3.00003 8.1ZM3.00003 4.1C3.14564 4.09764 3.28898 4.06352 3.42003 4C3.68524 3.95756 3.92274 3.81151 4.08027 3.59397C4.2378 3.37643 4.30246 3.10521 4.26003 2.84C4.21759 2.57478 4.07154 2.33728 3.85399 2.17975C3.63645 2.02222 3.36524 1.95756 3.10003 2H3.00003C2.72508 2.02276 2.46899 2.14893 2.2834 2.35307C2.09782 2.55721 1.99655 2.82413 2.00003 3.1C2.01286 3.35645 2.12386 3.59814 2.31003 3.775C2.49619 3.95185 2.74325 4.05032 3.00003 4.05V4.1ZM20.39 3.91C20.5459 4.03238 20.7345 4.10572 20.9321 4.12069C21.1297 4.13567 21.3272 4.09161 21.4997 3.99412C21.6722 3.89662 21.8119 3.75008 21.901 3.57308C21.99 3.39609 22.0245 3.19662 22 3C22 2.73478 21.8947 2.48043 21.7071 2.29289C21.5196 2.10535 21.2652 2 21 2H20.9C20.6809 2.00006 20.4679 2.07207 20.2938 2.20497C20.1196 2.33786 19.9938 2.52427 19.9359 2.73556C19.878 2.94685 19.891 3.17132 19.9731 3.37447C20.0551 3.57762 20.2016 3.7482 20.39 3.86V3.91ZM11.89 4H12.11C12.3752 4 12.6296 3.89464 12.8171 3.7071C13.0047 3.51957 13.11 3.26521 13.11 3C13.11 2.73478 13.0047 2.48043 12.8171 2.29289C12.6296 2.10535 12.3752 2 12.11 2H11.89C11.6248 2 11.3705 2.10535 11.1829 2.29289C10.9954 2.48043 10.89 2.73478 10.89 3C10.89 3.26521 10.9954 3.51957 11.1829 3.7071C11.3705 3.89464 11.6248 4 11.89 4ZM7.39003 4H7.60003C7.86524 4 8.1196 3.89464 8.30713 3.7071C8.49467 3.51957 8.60003 3.26521 8.60003 3C8.60003 2.73478 8.49467 2.48043 8.30713 2.29289C8.1196 2.10535 7.86524 2 7.60003 2H7.39003C7.12481 2 6.87045 2.10535 6.68292 2.29289C6.49538 2.48043 6.39003 2.73478 6.39003 3C6.39003 3.26521 6.49538 3.51957 6.68292 3.7071C6.87045 3.89464 7.12481 4 7.39003 4ZM21 20C20.8544 20.0024 20.7111 20.0365 20.58 20.1C20.3822 20.1927 20.2202 20.3477 20.1187 20.5412C20.0173 20.7347 19.982 20.9561 20.0183 21.1715C20.0546 21.387 20.1605 21.5846 20.3197 21.7342C20.4789 21.8838 20.6827 21.9772 20.9 22H21C21.275 21.9772 21.5311 21.8511 21.7166 21.6469C21.9022 21.4428 22.0035 21.1759 22 20.9C21.9752 20.6525 21.8589 20.4231 21.674 20.2567C21.4891 20.0903 21.2488 19.9988 21 20ZM14 11C14 10.7348 13.8947 10.4804 13.7071 10.2929C13.5196 10.1054 13.2652 10 13 10H3.27003C3.18038 9.9887 3.08967 9.9887 3.00003 10C2.73481 10 2.48045 10.1054 2.29292 10.2929C2.10538 10.4804 2.00003 10.7348 2.00003 11V21C2.00003 21.2652 2.10538 21.5196 2.29292 21.7071C2.48045 21.8946 2.73481 22 3.00003 22H13.1C13.2673 21.9987 13.4316 21.9555 13.5778 21.8744C13.7241 21.7932 13.8476 21.6766 13.9372 21.5354C14.0267 21.3941 14.0794 21.2326 14.0904 21.0657C14.1013 20.8988 14.0703 20.7318 14 20.58V11ZM12 20H5.52003L9.43003 16.1C9.46073 16.0689 9.49731 16.0441 9.53766 16.0272C9.578 16.0104 9.62129 16.0017 9.66503 16.0017C9.70876 16.0017 9.75205 16.0104 9.7924 16.0272C9.83274 16.0441 9.86932 16.0689 9.90002 16.1L12 18.19V20ZM12 15.37L11.32 14.68C10.8799 14.2434 10.285 13.9984 9.66503 13.9984C9.04504 13.9984 8.45018 14.2434 8.01003 14.68L4.01003 18.68V12H12.01L12 15.37ZM21 15.37C20.7348 15.37 20.4805 15.4754 20.2929 15.6629C20.1054 15.8504 20 16.1048 20 16.37V16.58C20 16.8452 20.1054 17.0996 20.2929 17.2871C20.4805 17.4746 20.7348 17.58 21 17.58C21.2652 17.58 21.5196 17.4746 21.7071 17.2871C21.8947 17.0996 22 16.8452 22 16.58V16.4C22 16.1348 21.8947 15.8804 21.7071 15.6929C21.5196 15.5054 21.2652 15.4 21 15.4V15.37ZM21 6.37C20.7348 6.37 20.4805 6.47535 20.2929 6.66289C20.1054 6.85043 20 7.10478 20 7.37V7.6C20 7.86521 20.1054 8.11957 20.2929 8.3071C20.4805 8.49464 20.7348 8.6 21 8.6C21.2652 8.6 21.5196 8.49464 21.7071 8.3071C21.8947 8.11957 22 7.86521 22 7.6V7.39C22 7.12478 21.8947 6.87043 21.7071 6.68289C21.5196 6.49535 21.2652 6.39 21 6.39V6.37ZM21 10.87C20.7348 10.87 20.4805 10.9754 20.2929 11.1629C20.1054 11.3504 20 11.6048 20 11.87V12.09C20 12.3552 20.1054 12.6096 20.2929 12.7971C20.4805 12.9846 20.7348 13.09 21 13.09C21.2652 13.09 21.5196 12.9846 21.7071 12.7971C21.8947 12.6096 22 12.3552 22 12.09V11.87C21.9948 11.6083 21.8871 11.359 21.7002 11.1758C21.5132 10.9926 21.2618 10.8899 21 10.89V10.87ZM17.1 20H16.9C16.6348 20 16.3805 20.1054 16.1929 20.2929C16.0054 20.4804 15.9 20.7348 15.9 21C15.9 21.2652 16.0054 21.5196 16.1929 21.7071C16.3805 21.8946 16.6348 22 16.9 22H17.1C17.3652 22 17.6196 21.8946 17.8071 21.7071C17.9947 21.5196 18.1 21.2652 18.1 21C18.1 20.7348 17.9947 20.4804 17.8071 20.2929C17.6196 20.1054 17.3652 20 17.1 20ZM16.61 4C16.8752 4 17.1296 3.89464 17.3171 3.7071C17.5047 3.51957 17.61 3.26521 17.61 3C17.61 2.73478 17.5047 2.48043 17.3171 2.29289C17.1296 2.10535 16.8752 2 16.61 2H16.4C16.1348 2 15.8805 2.10535 15.6929 2.29289C15.5054 2.48043 15.4 2.73478 15.4 3C15.4 3.26521 15.5054 3.51957 15.6929 3.7071C15.8805 3.89464 16.1348 4 16.4 4H16.61Z" fill="#26282B"/>
</svg>
