<svg width="24" height="24" viewBox="0 0 24 24" fill="none" xmlns="http://www.w3.org/2000/svg">
<path d="M13 16H6.99999C6.73478 16 6.48042 16.1054 6.29289 16.2929C6.10535 16.4804 5.99999 16.7348 5.99999 17C5.99999 17.2652 6.10535 17.5196 6.29289 17.7071C6.48042 17.8947 6.73478 18 6.99999 18H13C13.2652 18 13.5196 17.8947 13.7071 17.7071C13.8946 17.5196 14 17.2652 14 17C14 16.7348 13.8946 16.4804 13.7071 16.2929C13.5196 16.1054 13.2652 16 13 16ZM8.99999 10H11C11.2652 10 11.5196 9.89465 11.7071 9.70711C11.8946 9.51958 12 9.26522 12 9.00001C12 8.73479 11.8946 8.48044 11.7071 8.2929C11.5196 8.10536 11.2652 8.00001 11 8.00001H8.99999C8.73478 8.00001 8.48042 8.10536 8.29289 8.2929C8.10535 8.48044 7.99999 8.73479 7.99999 9.00001C7.99999 9.26522 8.10535 9.51958 8.29289 9.70711C8.48042 9.89465 8.73478 10 8.99999 10ZM21 12H18V3.00001C18.0007 2.8238 17.9548 2.65053 17.867 2.49775C17.7792 2.34498 17.6526 2.21811 17.5 2.13001C17.348 2.04224 17.1755 1.99603 17 1.99603C16.8245 1.99603 16.652 2.04224 16.5 2.13001L13.5 3.85001L10.5 2.13001C10.348 2.04224 10.1755 1.99603 9.99999 1.99603C9.82446 1.99603 9.65201 2.04224 9.49999 2.13001L6.49999 3.85001L3.49999 2.13001C3.34797 2.04224 3.17553 1.99603 2.99999 1.99603C2.82446 1.99603 2.65201 2.04224 2.49999 2.13001C2.34739 2.21811 2.22077 2.34498 2.13297 2.49775C2.04517 2.65053 1.99929 2.8238 1.99999 3.00001V19C1.99999 19.7957 2.31606 20.5587 2.87867 21.1213C3.44128 21.6839 4.20434 22 4.99999 22H19C19.7956 22 20.5587 21.6839 21.1213 21.1213C21.6839 20.5587 22 19.7957 22 19V13C22 12.7348 21.8946 12.4804 21.7071 12.2929C21.5196 12.1054 21.2652 12 21 12ZM4.99999 20C4.73478 20 4.48042 19.8947 4.29289 19.7071C4.10535 19.5196 3.99999 19.2652 3.99999 19V4.73001L5.99999 5.87001C6.15433 5.95062 6.32587 5.99272 6.49999 5.99272C6.67411 5.99272 6.84565 5.95062 6.99999 5.87001L9.99999 4.15001L13 5.87001C13.1543 5.95062 13.3259 5.99272 13.5 5.99272C13.6741 5.99272 13.8457 5.95062 14 5.87001L16 4.73001V19C16.0027 19.3412 16.0636 19.6793 16.18 20H4.99999ZM20 19C20 19.2652 19.8946 19.5196 19.7071 19.7071C19.5196 19.8947 19.2652 20 19 20C18.7348 20 18.4804 19.8947 18.2929 19.7071C18.1053 19.5196 18 19.2652 18 19V14H20V19ZM13 12H6.99999C6.73478 12 6.48042 12.1054 6.29289 12.2929C6.10535 12.4804 5.99999 12.7348 5.99999 13C5.99999 13.2652 6.10535 13.5196 6.29289 13.7071C6.48042 13.8947 6.73478 14 6.99999 14H13C13.2652 14 13.5196 13.8947 13.7071 13.7071C13.8946 13.5196 14 13.2652 14 13C14 12.7348 13.8946 12.4804 13.7071 12.2929C13.5196 12.1054 13.2652 12 13 12Z" fill="#26282B"/>
</svg>
