<svg width="24" height="24" viewBox="0 0 24 24" fill="none" xmlns="http://www.w3.org/2000/svg">
<path d="M17.45 12.46C18.6176 11.0225 19.1679 9.18086 18.9804 7.33845C18.793 5.49603 17.8831 3.80297 16.45 2.63C15.629 1.97198 14.6718 1.50496 13.6478 1.26281C12.6239 1.02066 11.5588 1.00945 10.53 1.23C9.37487 1.48549 8.30333 2.0296 7.41546 2.81148C6.5276 3.59337 5.85239 4.58752 5.45291 5.7011C5.05342 6.81468 4.94268 8.01134 5.13104 9.17931C5.3194 10.3473 5.80071 11.4485 6.53002 12.38C7.1947 13.1886 7.57428 14.1938 7.61002 15.24V15.53C7.22951 15.8976 7.01017 16.401 7.00002 16.93V18.93C7.00002 19.4604 7.21073 19.9691 7.58581 20.3442C7.96088 20.7193 8.46959 20.93 9.00002 20.93V21.93C9.00002 22.1952 9.10538 22.4496 9.29291 22.6371C9.48045 22.8246 9.7348 22.93 10 22.93C10.2652 22.93 10.5196 22.8246 10.7071 22.6371C10.8947 22.4496 11 22.1952 11 21.93V20.93H13V21.93C13 22.1952 13.1054 22.4496 13.2929 22.6371C13.4804 22.8246 13.7348 22.93 14 22.93C14.2652 22.93 14.5196 22.8246 14.7071 22.6371C14.8947 22.4496 15 22.1952 15 21.93V20.93C15.5305 20.93 16.0392 20.7193 16.4142 20.3442C16.7893 19.9691 17 19.4604 17 18.93V16.93C17.0005 16.4067 16.7958 15.9041 16.43 15.53V15.1C16.4592 14.1295 16.8191 13.198 17.45 12.46ZM9.00002 18.93V16.93H15V18.93H9.00002ZM15.89 11.21C15.0048 12.2541 14.4913 13.5625 14.43 14.93H9.56002C9.46569 13.5446 8.94131 12.2231 8.06002 11.15C7.53063 10.4856 7.17924 9.69734 7.039 8.8595C6.89876 8.02166 6.97431 7.1619 7.2585 6.36136C7.54269 5.56081 8.02617 4.84587 8.6633 4.284C9.30044 3.72213 10.0702 3.33185 10.9 3.15C11.6352 2.98416 12.3984 2.98668 13.1325 3.15735C13.8666 3.32802 14.5526 3.66244 15.1392 4.13559C15.7258 4.60875 16.1979 5.2084 16.5202 5.88971C16.8424 6.57102 17.0064 7.31636 17 8.07C17.0063 9.21388 16.6138 10.3242 15.89 11.21Z" fill="#26282B"/>
</svg>
