<svg width="24" height="24" viewBox="0 0 24 24" fill="none" xmlns="http://www.w3.org/2000/svg">
<path d="M4.76 10.59C5.02522 10.6245 5.29327 10.5522 5.50518 10.389C5.7171 10.2259 5.85552 9.98522 5.89 9.72C5.92448 9.45478 5.85219 9.18673 5.68903 8.97482C5.52588 8.7629 5.28522 8.62448 5.02 8.59L3.26 8.15C3.13169 8.11066 2.99677 8.09756 2.86329 8.11146C2.7298 8.12537 2.60048 8.166 2.48303 8.23094C2.36558 8.29588 2.2624 8.3838 2.17965 8.48945C2.09689 8.59511 2.03625 8.71634 2.00134 8.84593C1.96642 8.97551 1.95795 9.1108 1.97642 9.24373C1.9949 9.37666 2.03994 9.50451 2.10887 9.61967C2.17779 9.73482 2.26919 9.83493 2.37763 9.91401C2.48606 9.9931 2.60929 10.0495 2.74 10.08L4.5 10.55C4.58378 10.578 4.6717 10.5915 4.76 10.59ZM8.62 5C8.6786 5.21816 8.80934 5.41005 8.99092 5.54443C9.17251 5.6788 9.39424 5.74773 9.62 5.74C9.70612 5.75383 9.79389 5.75383 9.88 5.74C10.1338 5.66978 10.3497 5.50228 10.4807 5.27387C10.6118 5.04545 10.6475 4.77455 10.58 4.52L10.11 2.76C10.0795 2.62929 10.0231 2.50605 9.94401 2.39762C9.86493 2.28919 9.76483 2.19779 9.64967 2.12886C9.53452 2.05994 9.40667 2.01489 9.27374 1.99642C9.14081 1.97795 9.00552 1.98642 8.87593 2.02133C8.74635 2.05625 8.62511 2.11689 8.51946 2.19964C8.4138 2.2824 8.32589 2.38558 8.26095 2.50303C8.19601 2.62048 8.15537 2.7498 8.14147 2.88328C8.12756 3.01677 8.14067 3.15169 8.18 3.28L8.62 5ZM13.45 15C13.3566 14.9017 13.2441 14.8234 13.1195 14.7698C12.9949 14.7163 12.8606 14.6887 12.725 14.6887C12.5894 14.6887 12.4551 14.7163 12.3305 14.7698C12.2059 14.8234 12.0934 14.9017 12 15L8.5 18.56C8.08849 18.9548 7.54028 19.1753 6.97 19.1753C6.39972 19.1753 5.85152 18.9548 5.44 18.56C5.23743 18.36 5.07658 18.1218 4.96681 17.8591C4.85703 17.5965 4.8005 17.3147 4.8005 17.03C4.8005 16.7453 4.85703 16.4635 4.96681 16.2009C5.07658 15.9382 5.23743 15.7 5.44 15.5L9 12C9.10468 11.9104 9.1897 11.8 9.24973 11.676C9.30975 11.5519 9.34348 11.4168 9.3488 11.2791C9.35412 11.1413 9.33091 11.004 9.28064 10.8757C9.23037 10.7473 9.15411 10.6308 9.05665 10.5333C8.9592 10.4359 8.84265 10.3596 8.71432 10.3094C8.586 10.2591 8.44867 10.2359 8.31095 10.2412C8.17323 10.2465 8.0381 10.2802 7.91403 10.3403C7.78997 10.4003 7.67965 10.4853 7.59 10.59L4 14.08C3.61129 14.4687 3.30295 14.9302 3.09258 15.4381C2.88221 15.9459 2.77393 16.4903 2.77393 17.04C2.77393 17.5897 2.88221 18.1341 3.09258 18.6419C3.30295 19.1498 3.61129 19.6113 4 20C4.38871 20.3887 4.85018 20.6971 5.35806 20.9074C5.86594 21.1178 6.41028 21.2261 6.96 21.2261C7.50972 21.2261 8.05406 21.1178 8.56194 20.9074C9.06982 20.6971 9.53129 20.3887 9.92 20L13.45 16.47C13.5515 16.3764 13.6325 16.2627 13.6879 16.1362C13.7433 16.0097 13.7719 15.8731 13.7719 15.735C13.7719 15.5969 13.7433 15.4603 13.6879 15.3338C13.6325 15.2073 13.5515 15.0936 13.45 15ZM5.18 6.59C5.36626 6.77474 5.61766 6.87889 5.88 6.88C6.01161 6.88076 6.14207 6.85553 6.26391 6.80577C6.38575 6.75601 6.49656 6.68268 6.59 6.59C6.77625 6.40264 6.88079 6.14918 6.88079 5.885C6.88079 5.62081 6.77625 5.36736 6.59 5.18L5.3 3.89C5.1087 3.72617 4.86262 3.64057 4.61095 3.65029C4.35927 3.66001 4.12053 3.76434 3.94244 3.94244C3.76434 4.12053 3.66001 4.35927 3.65029 4.61094C3.64057 4.86262 3.72618 5.1087 3.89 5.3L5.18 6.59ZM21.26 13.92L19.5 13.45C19.3696 13.4049 19.2312 13.3873 19.0937 13.3983C18.9561 13.4093 18.8223 13.4486 18.7007 13.5139C18.5791 13.5791 18.4723 13.6688 18.387 13.7773C18.3018 13.8858 18.2399 14.0108 18.2053 14.1443C18.1707 14.2779 18.1641 14.4172 18.1859 14.5535C18.2078 14.6897 18.2576 14.82 18.3323 14.9361C18.4069 15.0521 18.5048 15.1515 18.6197 15.2279C18.7346 15.3043 18.8641 15.3561 19 15.38L20.76 15.85H21.02C21.2852 15.8845 21.5533 15.8122 21.7652 15.649C21.9771 15.4859 22.1155 15.2452 22.15 14.98C22.1845 14.7148 22.1122 14.4467 21.949 14.2348C21.7859 14.0229 21.5452 13.8845 21.28 13.85L21.26 13.92ZM15.38 19C15.3453 18.8732 15.2859 18.7545 15.2053 18.6507C15.1247 18.5469 15.0244 18.46 14.9101 18.395C14.7959 18.33 14.6699 18.2881 14.5395 18.2718C14.4091 18.2555 14.2767 18.2651 14.15 18.3C13.8962 18.3702 13.6803 18.5377 13.5493 18.7661C13.4182 18.9945 13.3825 19.2654 13.45 19.52L13.92 21.28C13.9786 21.4982 14.1093 21.6901 14.2909 21.8244C14.4725 21.9588 14.6942 22.0277 14.92 22.02C15.0064 22.0298 15.0936 22.0298 15.18 22.02C15.3077 21.9864 15.4274 21.9278 15.5323 21.8476C15.6373 21.7674 15.7253 21.6673 15.7913 21.5529C15.8573 21.4386 15.9 21.3123 15.9169 21.1813C15.9339 21.0504 15.9247 20.9174 15.89 20.79L15.38 19ZM18.82 17.43C18.6287 17.2662 18.3826 17.1806 18.1309 17.1903C17.8793 17.2 17.6405 17.3043 17.4624 17.4824C17.2843 17.6605 17.18 17.8993 17.1703 18.1509C17.1606 18.4026 17.2462 18.6487 17.41 18.84L18.7 20.13C18.8874 20.3162 19.1408 20.4208 19.405 20.4208C19.6692 20.4208 19.9226 20.3162 20.11 20.13C20.2963 19.9426 20.4008 19.6892 20.4008 19.425C20.4008 19.1608 20.2963 18.9074 20.11 18.72L18.82 17.43ZM21.2 7C21.2155 6.16844 20.9815 5.35131 20.528 4.6541C20.0745 3.95689 19.4225 3.41162 18.656 3.08868C17.8896 2.76573 17.0439 2.67995 16.2282 2.8424C15.4125 3.00484 14.6643 3.40806 14.08 4L10.55 7.56C10.4555 7.65521 10.3806 7.76811 10.3297 7.89225C10.2787 8.0164 10.2528 8.14935 10.2532 8.28353C10.2537 8.41772 10.2806 8.55049 10.3324 8.67428C10.3841 8.79807 10.4598 8.91045 10.555 9.005C10.6502 9.09955 10.7631 9.17442 10.8873 9.22534C11.0114 9.27626 11.1444 9.30223 11.2785 9.30177C11.4127 9.3013 11.5455 9.27442 11.6693 9.22264C11.7931 9.17086 11.9054 9.09521 12 9L15.5 5.44C15.9115 5.04519 16.4597 4.82474 17.03 4.82474C17.6003 4.82474 18.1485 5.04519 18.56 5.44C18.7626 5.63999 18.9234 5.87822 19.0332 6.14086C19.143 6.40351 19.1995 6.68534 19.1995 6.97C19.1995 7.25466 19.143 7.53649 19.0332 7.79913C18.9234 8.06178 18.7626 8.30001 18.56 8.5L15 12C14.8138 12.1874 14.7092 12.4408 14.7092 12.705C14.7092 12.9692 14.8138 13.2226 15 13.41C15.1874 13.5962 15.4408 13.7008 15.705 13.7008C15.9692 13.7008 16.2226 13.5962 16.41 13.41L20 9.92C20.7654 9.14035 21.196 8.09256 21.2 7Z" fill="#26282B"/>
</svg>
