<svg width="24" height="24" viewBox="0 0 24 24" fill="none" xmlns="http://www.w3.org/2000/svg">
<path d="M12.44 13.11L12.27 13C12.0869 12.9247 11.8856 12.9054 11.6916 12.9445C11.4976 12.9837 11.3195 13.0796 11.18 13.22C11.0835 13.3087 11.0083 13.4181 10.96 13.54C10.9075 13.6633 10.8803 13.796 10.88 13.93C10.8816 14.0607 10.9088 14.1898 10.96 14.31C11.0675 14.5503 11.2597 14.7425 11.5 14.85C11.6202 14.9012 11.7493 14.9284 11.88 14.93C12.0138 14.9275 12.146 14.9004 12.27 14.85C12.39 14.7983 12.4987 14.7235 12.59 14.63C12.7763 14.4426 12.8808 14.1892 12.8808 13.925C12.8808 13.6608 12.7763 13.4074 12.59 13.22L12.44 13.11ZM11.88 6C11.4029 5.99463 10.9325 6.11351 10.5153 6.34494C10.098 6.57637 9.7481 6.9124 9.5 7.32C9.42765 7.43382 9.37907 7.56109 9.35718 7.69417C9.33529 7.82726 9.34055 7.96339 9.37263 8.09438C9.40472 8.22538 9.46297 8.34853 9.54389 8.45643C9.6248 8.56433 9.72671 8.65475 9.84347 8.72224C9.96024 8.78974 10.0895 8.83291 10.2233 8.84918C10.3572 8.86544 10.493 8.85445 10.6225 8.81687C10.7521 8.7793 10.8727 8.71591 10.9771 8.63052C11.0814 8.54513 11.1675 8.4395 11.23 8.32C11.3038 8.21742 11.4017 8.13458 11.515 8.07877C11.6284 8.02297 11.7537 7.99591 11.88 8C12.0789 8 12.2697 8.07902 12.4103 8.21967C12.551 8.36032 12.63 8.55109 12.63 8.75C12.63 8.94891 12.551 9.13968 12.4103 9.28033C12.2697 9.42098 12.0789 9.5 11.88 9.5C11.6148 9.5 11.3604 9.60536 11.1729 9.79289C10.9854 9.98043 10.88 10.2348 10.88 10.5C10.88 10.7652 10.9854 11.0196 11.1729 11.2071C11.3604 11.3946 11.6148 11.5 11.88 11.5C12.6093 11.5 13.3088 11.2103 13.8245 10.6945C14.3403 10.1788 14.63 9.47934 14.63 8.75C14.63 8.02065 14.3403 7.32118 13.8245 6.80545C13.3088 6.28973 12.6093 6 11.88 6ZM20.46 9.68C20.3274 8.21461 19.8167 6.80873 18.9778 5.59991C18.139 4.39108 17.0007 3.42072 15.6743 2.78374C14.348 2.14677 12.879 1.86501 11.4111 1.96602C9.94316 2.06703 8.52661 2.54735 7.3 3.36C6.2492 4.06264 5.36706 4.9893 4.71695 6.07339C4.06684 7.15748 3.6649 8.3721 3.54 9.63C3.41749 10.8797 3.57468 12.1409 4.00017 13.3223C4.42567 14.5036 5.1088 15.5755 6 16.46L11.3 21.77C11.393 21.8637 11.5036 21.9381 11.6254 21.9889C11.7473 22.0397 11.878 22.0658 12.01 22.0658C12.142 22.0658 12.2727 22.0397 12.3946 21.9889C12.5164 21.9381 12.627 21.8637 12.72 21.77L18 16.46C18.8912 15.5755 19.5743 14.5036 19.9998 13.3223C20.4253 12.1409 20.5825 10.8797 20.46 9.63V9.68ZM16.6 15.05L12 19.65L7.4 15.05C6.72209 14.3721 6.20281 13.5523 5.87947 12.6498C5.55614 11.7472 5.43679 10.7842 5.53 9.83C5.62382 8.8611 5.93177 7.92516 6.43157 7.08984C6.93138 6.25452 7.61056 5.54071 8.42 5C9.48095 4.29523 10.7263 3.91929 12 3.91929C13.2737 3.91929 14.5191 4.29523 15.58 5C16.387 5.53862 17.0647 6.24928 17.5644 7.08094C18.064 7.91259 18.3733 8.8446 18.47 9.81C18.5663 10.7674 18.4484 11.7343 18.125 12.6405C17.8016 13.5468 17.2807 14.3698 16.6 15.05Z" fill="#26282B"/>
</svg>
