<svg width="24" height="24" viewBox="0 0 24 24" fill="none" xmlns="http://www.w3.org/2000/svg">
<path d="M12 10C11.7348 10 11.4804 10.1054 11.2929 10.2929C11.1054 10.4804 11 10.7348 11 11V13C11 13.2652 11.1054 13.5196 11.2929 13.7071C11.4804 13.8946 11.7348 14 12 14C12.2652 14 12.5196 13.8946 12.7071 13.7071C12.8946 13.5196 13 13.2652 13 13V11C13 10.7348 12.8946 10.4804 12.7071 10.2929C12.5196 10.1054 12.2652 10 12 10ZM20.46 9.68C20.3274 8.21461 19.8167 6.80873 18.9778 5.59991C18.139 4.39108 17.0007 3.42072 15.6743 2.78374C14.348 2.14677 12.879 1.86501 11.4111 1.96602C9.94316 2.06703 8.52661 2.54735 7.3 3.36C6.2492 4.06264 5.36706 4.9893 4.71695 6.07339C4.06684 7.15748 3.6649 8.3721 3.54 9.63C3.41749 10.8797 3.57468 12.1409 4.00017 13.3223C4.42567 14.5036 5.1088 15.5755 6 16.46L11.3 21.77C11.393 21.8637 11.5036 21.9381 11.6254 21.9889C11.7473 22.0397 11.878 22.0658 12.01 22.0658C12.142 22.0658 12.2727 22.0397 12.3946 21.9889C12.5164 21.9381 12.627 21.8637 12.72 21.77L18 16.46C18.8912 15.5755 19.5743 14.5036 19.9998 13.3223C20.4253 12.1409 20.5825 10.8797 20.46 9.63V9.68ZM16.6 15.05L12 19.65L7.4 15.05C6.72209 14.3721 6.20281 13.5523 5.87947 12.6498C5.55614 11.7472 5.43679 10.7842 5.53 9.83C5.62382 8.8611 5.93177 7.92516 6.43157 7.08984C6.93138 6.25452 7.61056 5.54071 8.42 5C9.48095 4.29523 10.7263 3.91929 12 3.91929C13.2737 3.91929 14.5191 4.29523 15.58 5C16.387 5.53862 17.0647 6.24928 17.5644 7.08094C18.064 7.91259 18.3733 8.8446 18.47 9.81C18.5663 10.7674 18.4484 11.7343 18.125 12.6405C17.8016 13.5468 17.2807 14.3698 16.6 15.05ZM12.92 7.57C12.9 7.50857 12.8696 7.45105 12.83 7.4L12.71 7.25C12.5906 7.13664 12.4451 7.05451 12.2863 7.0109C12.1276 6.96729 11.9605 6.96354 11.8 7H11.62L11.44 7.09L11.29 7.22L11.17 7.37C11.1304 7.42105 11.1 7.47857 11.08 7.54C11.0496 7.59955 11.0293 7.66376 11.02 7.73C11.0034 7.81899 10.9967 7.90954 11 8C10.9965 8.1344 11.0239 8.26782 11.08 8.39C11.1309 8.50802 11.202 8.6163 11.29 8.71C11.3852 8.80344 11.4971 8.87808 11.62 8.93C11.8648 9.023 12.1352 9.023 12.38 8.93C12.5015 8.87564 12.6131 8.80128 12.71 8.71C12.798 8.6163 12.8691 8.50802 12.92 8.39C12.9725 8.26667 12.9997 8.13405 13 8C13.0049 7.93676 13.0049 7.87324 13 7.81C12.9907 7.72522 12.9634 7.6434 12.92 7.57Z" fill="#26282B"/>
</svg>
