<svg width="24" height="24" viewBox="0 0 24 24" fill="none" xmlns="http://www.w3.org/2000/svg">
<path d="M6 7.49001C6.26522 7.49001 6.51958 7.38465 6.70711 7.19711C6.89465 7.00958 7 6.75522 7 6.49001V5.90001L9.88 8.78001C10.4425 9.34181 11.205 9.65737 12 9.65737C12.795 9.65737 13.5575 9.34181 14.12 8.78001L18.71 4.19001C18.8963 4.00264 19.0008 3.74919 19.0008 3.48501C19.0008 3.22082 18.8963 2.96737 18.71 2.78001C18.617 2.68628 18.5064 2.61188 18.3846 2.56111C18.2627 2.51035 18.132 2.48421 18 2.48421C17.868 2.48421 17.7373 2.51035 17.6154 2.56111C17.4936 2.61188 17.383 2.68628 17.29 2.78001L12.71 7.36001C12.617 7.45373 12.5064 7.52813 12.3846 7.5789C12.2627 7.62967 12.132 7.6558 12 7.6558C11.868 7.6558 11.7373 7.62967 11.6154 7.5789C11.4936 7.52813 11.383 7.45373 11.29 7.36001L8.41 4.49001H9C9.26522 4.49001 9.51958 4.38465 9.70711 4.19711C9.89465 4.00958 10 3.75522 10 3.49001C10 3.22479 9.89465 2.97044 9.70711 2.7829C9.51958 2.59536 9.26522 2.49001 9 2.49001H6C5.80371 2.49017 5.61181 2.54809 5.44821 2.65656C5.28461 2.76504 5.15656 2.91926 5.08 3.10001C5.02962 3.22399 5.0025 3.3562 5.00001 3.49001V6.49001C5.00001 6.75522 5.10536 7.00958 5.2929 7.19711C5.48043 7.38465 5.73479 7.49001 6 7.49001ZM21.94 14.85C19.0924 12.6525 15.5969 11.4606 12 11.4606C8.4031 11.4606 4.90759 12.6525 2.06 14.85C1.75964 15.0922 1.51489 15.3961 1.34235 15.7412C1.1698 16.0863 1.07351 16.4644 1.06 16.85C1.03389 17.2308 1.09003 17.6128 1.22462 17.9699C1.35921 18.3271 1.56909 18.6511 1.84 18.92L3.6 20.72C4.04975 21.1696 4.6447 21.4446 5.27855 21.4959C5.91239 21.5472 6.54382 21.3714 7.06 21L7.53 20.68C7.85004 20.4735 8.1842 20.2897 8.53 20.13C8.95508 19.9423 9.29395 19.6015 9.47923 19.1753C9.66452 18.7492 9.68264 18.2689 9.53 17.83L9.44 17.59C11.1522 17.1502 12.9478 17.1502 14.66 17.59L14.57 17.83C14.4174 18.2689 14.4355 18.7492 14.6208 19.1753C14.8061 19.6015 15.1449 19.9423 15.57 20.13C15.9158 20.2897 16.25 20.4735 16.57 20.68L17.04 21C17.4864 21.3276 18.0263 21.5029 18.58 21.5C19.2993 21.5009 19.9896 21.2168 20.5 20.71L22.31 18.89C22.5635 18.6145 22.756 18.2886 22.8749 17.9337C22.9938 17.5787 23.0364 17.2026 23 16.83C22.9764 16.4431 22.8695 16.0658 22.6865 15.7241C22.5036 15.3823 22.2489 15.0842 21.94 14.85ZM20.8 17.49L19 19.3C18.8906 19.414 18.7449 19.4863 18.588 19.5046C18.431 19.5228 18.2726 19.4858 18.14 19.4C17.95 19.26 17.76 19.13 17.55 19C17.1978 18.7773 16.834 18.5737 16.46 18.39L16.86 17.3C16.9501 17.0507 16.9375 16.7758 16.825 16.5358C16.7124 16.2958 16.5092 16.1103 16.26 16.02C13.5149 15.0203 10.5052 15.0203 7.76 16.02C7.51077 16.1103 7.30757 16.2958 7.19506 16.5358C7.08255 16.7758 7.06994 17.0507 7.16 17.3L7.56 18.4C7.18091 18.5763 6.8135 18.7767 6.46 19L5.88 19.4C5.74703 19.4954 5.58335 19.538 5.42074 19.5195C5.25813 19.501 5.10818 19.4228 5.00001 19.3L3.20001 17.49C3.13514 17.4262 3.08396 17.3498 3.04957 17.2656C3.01519 17.1813 2.99832 17.091 3.00001 17C3.00831 16.8973 3.03741 16.7973 3.08555 16.7062C3.13368 16.6151 3.19984 16.5348 3.28 16.47C5.77927 14.545 8.8453 13.501 12 13.501C15.1547 13.501 18.2207 14.545 20.72 16.47C20.8002 16.5348 20.8663 16.6151 20.9145 16.7062C20.9626 16.7973 20.9917 16.8973 21 17C21.0017 17.091 20.9848 17.1813 20.9504 17.2656C20.9161 17.3498 20.8649 17.4262 20.8 17.49Z" fill="#26282B"/>
</svg>
