<svg width="24" height="24" viewBox="0 0 24 24" fill="none" xmlns="http://www.w3.org/2000/svg">
<path d="M12 7.33001C12.2652 7.33001 12.5196 7.22465 12.7071 7.03711C12.8946 6.84958 13 6.59522 13 6.33001V5.78001L19 4.28001V7.22001L14.7 8.30001C14.4348 8.33183 14.1931 8.46771 14.028 8.67775C13.863 8.88779 13.7882 9.15479 13.82 9.42001C13.8518 9.68522 13.9877 9.92693 14.1977 10.092C14.4078 10.257 14.6748 10.3318 14.94 10.3H15.18L20.24 9.00001H20.31L20.5 8.91001L20.65 8.81001C20.6986 8.76479 20.7421 8.7145 20.78 8.66001C20.819 8.61404 20.8526 8.5637 20.88 8.51001C20.9103 8.45394 20.9306 8.39303 20.94 8.33001C20.9493 8.26701 20.9493 8.203 20.94 8.14001C20.9747 8.10109 20.9957 8.05195 21 8.00001V3.00001C21.0045 2.84581 20.9733 2.69266 20.9088 2.55253C20.8443 2.4124 20.7483 2.2891 20.6282 2.19226C20.5081 2.09542 20.3673 2.02768 20.2166 1.99432C20.066 1.96097 19.9097 1.96292 19.76 2.00001L11.76 4.00001C11.5381 4.05476 11.3417 4.18385 11.2034 4.3658C11.0651 4.54775 10.9933 4.77157 11 5.00001V6.33001C11 6.59522 11.1054 6.84958 11.2929 7.03711C11.4804 7.22465 11.7348 7.33001 12 7.33001ZM21.71 20.33L12.71 11.33L3.71 2.33001C3.51952 2.18263 3.28225 2.10895 3.04179 2.1225C2.80134 2.13605 2.57385 2.23593 2.40114 2.40378C2.22842 2.57163 2.12209 2.79617 2.10167 3.03614C2.08125 3.27611 2.14813 3.51539 2.29 3.71001L11 12.41V15.35C10.5328 15.1218 10.02 15.0021 9.5 15C8.80777 15 8.13108 15.2053 7.55551 15.5899C6.97993 15.9744 6.53133 16.5211 6.26642 17.1606C6.00152 17.8002 5.93221 18.5039 6.06725 19.1828C6.2023 19.8618 6.53565 20.4854 7.02513 20.9749C7.51461 21.4644 8.13825 21.7977 8.81719 21.9328C9.49612 22.0678 10.1999 21.9985 10.8394 21.7336C11.4789 21.4687 12.0256 21.0201 12.4101 20.4445C12.7947 19.8689 13 19.1922 13 18.5V14.41L20.29 21.71C20.383 21.8037 20.4936 21.8781 20.6154 21.9289C20.7373 21.9797 20.868 22.0058 21 22.0058C21.132 22.0058 21.2627 21.9797 21.3846 21.9289C21.5064 21.8781 21.617 21.8037 21.71 21.71C21.8037 21.617 21.8781 21.5064 21.9289 21.3846C21.9797 21.2627 22.0058 21.132 22.0058 21C22.0058 20.868 21.9797 20.7373 21.9289 20.6154C21.8781 20.4936 21.8037 20.383 21.71 20.29V20.33ZM9.5 20C9.20333 20 8.91332 19.912 8.66665 19.7472C8.41997 19.5824 8.22771 19.3481 8.11418 19.074C8.00065 18.7999 7.97095 18.4983 8.02882 18.2074C8.0867 17.9164 8.22956 17.6491 8.43934 17.4393C8.64912 17.2296 8.9164 17.0867 9.20737 17.0288C9.49834 16.971 9.79994 17.0007 10.074 17.1142C10.3481 17.2277 10.5824 17.42 10.7472 17.6667C10.912 17.9133 11 18.2033 11 18.5C11 18.8978 10.842 19.2794 10.5607 19.5607C10.2794 19.842 9.89783 20 9.5 20Z" fill="#26282B"/>
</svg>
