<svg width="24" height="24" viewBox="0 0 24 24" fill="none" xmlns="http://www.w3.org/2000/svg">
<path d="M16 10H14V8.00001C14 7.7348 13.8946 7.48044 13.7071 7.29291C13.5196 7.10537 13.2652 7.00001 13 7.00001H8C7.73478 7.00001 7.48043 7.10537 7.29289 7.29291C7.10535 7.48044 7 7.7348 7 8.00001V13C7 13.2652 7.10535 13.5196 7.29289 13.7071C7.48043 13.8947 7.73478 14 8 14H10V16C10 16.2652 10.1054 16.5196 10.2929 16.7071C10.4804 16.8947 10.7348 17 11 17H16C16.2652 17 16.5196 16.8947 16.7071 16.7071C16.8946 16.5196 17 16.2652 17 16V11C17 10.7348 16.8946 10.4804 16.7071 10.2929C16.5196 10.1054 16.2652 10 16 10ZM10 11V12H9V9.00001H12V10H11C10.7348 10 10.4804 10.1054 10.2929 10.2929C10.1054 10.4804 10 10.7348 10 11ZM15 15H12V12H15V15ZM21 18.28V5.72001C21.2705 5.56958 21.5023 5.35844 21.6773 5.1032C21.8523 4.84796 21.9657 4.55559 22.0086 4.24909C22.0514 3.9426 22.0225 3.63034 21.9242 3.33689C21.8259 3.04345 21.6609 2.77682 21.442 2.55799C21.2232 2.33915 20.9566 2.17409 20.6631 2.07578C20.3697 1.97748 20.0574 1.94861 19.7509 1.99146C19.4444 2.0343 19.1521 2.14769 18.8968 2.3227C18.6416 2.49771 18.4304 2.72956 18.28 3.00001H5.72C5.56956 2.72956 5.35842 2.49771 5.10318 2.3227C4.84794 2.14769 4.55557 2.0343 4.24908 1.99146C3.94258 1.94861 3.63032 1.97748 3.33688 2.07578C3.04343 2.17409 2.7768 2.33915 2.55797 2.55799C2.33914 2.77682 2.17407 3.04345 2.07577 3.33689C1.97746 3.63034 1.9486 3.9426 1.99144 4.24909C2.03429 4.55559 2.14768 4.84796 2.32269 5.1032C2.49769 5.35844 2.72955 5.56958 3 5.72001V18.28C2.72955 18.4304 2.49769 18.6416 2.32269 18.8968C2.14768 19.1521 2.03429 19.4444 1.99144 19.7509C1.9486 20.0574 1.97746 20.3697 2.07577 20.6631C2.17407 20.9566 2.33914 21.2232 2.55797 21.442C2.7768 21.6609 3.04343 21.8259 3.33688 21.9242C3.63032 22.0225 3.94258 22.0514 4.24908 22.0086C4.55557 21.9657 4.84794 21.8523 5.10318 21.6773C5.35842 21.5023 5.56956 21.2705 5.72 21H18.28C18.4304 21.2705 18.6416 21.5023 18.8968 21.6773C19.1521 21.8523 19.4444 21.9657 19.7509 22.0086C20.0574 22.0514 20.3697 22.0225 20.6631 21.9242C20.9566 21.8259 21.2232 21.6609 21.442 21.442C21.6609 21.2232 21.8259 20.9566 21.9242 20.6631C22.0225 20.3697 22.0514 20.0574 22.0086 19.7509C21.9657 19.4444 21.8523 19.1521 21.6773 18.8968C21.5023 18.6416 21.2705 18.4304 21 18.28ZM19 18.28C18.6993 18.4504 18.4504 18.6993 18.28 19H5.72C5.54957 18.6993 5.30073 18.4504 5 18.28V5.72001C5.30073 5.54959 5.54957 5.30074 5.72 5.00001H18.28C18.4504 5.30074 18.6993 5.54959 19 5.72001V18.28Z" fill="#26282B"/>
</svg>
