<svg width="24" height="24" viewBox="0 0 24 24" fill="none" xmlns="http://www.w3.org/2000/svg">
<path d="M21 18.28V11.72C21.2704 11.5696 21.5023 11.3584 21.6773 11.1032C21.8523 10.848 21.9657 10.5556 22.0085 10.2491C22.0514 9.9426 22.0225 9.63034 21.9242 9.33689C21.8259 9.04345 21.6608 8.77682 21.442 8.55798C21.2232 8.33915 20.9566 8.17409 20.6631 8.07578C20.3697 7.97748 20.0574 7.94861 19.7509 7.99146C19.4444 8.0343 19.152 8.14769 18.8968 8.3227C18.6416 8.49771 18.4304 8.72956 18.28 9.00001H15V5.72001C15.2704 5.56958 15.5023 5.35844 15.6773 5.1032C15.8523 4.84796 15.9657 4.55559 16.0085 4.24909C16.0514 3.9426 16.0225 3.63034 15.9242 3.33689C15.8259 3.04345 15.6608 2.77682 15.442 2.55799C15.2232 2.33915 14.9565 2.17409 14.6631 2.07578C14.3697 1.97748 14.0574 1.94861 13.7509 1.99146C13.4444 2.0343 13.152 2.14769 12.8968 2.3227C12.6416 2.49771 12.4304 2.72956 12.28 3.00001H5.71998C5.56955 2.72956 5.3584 2.49771 5.10317 2.3227C4.84793 2.14769 4.55556 2.0343 4.24906 1.99146C3.94257 1.94861 3.63031 1.97748 3.33686 2.07578C3.04342 2.17409 2.77679 2.33915 2.55795 2.55799C2.33912 2.77682 2.17406 3.04345 2.07575 3.33689C1.97745 3.63034 1.94858 3.9426 1.99143 4.24909C2.03427 4.55559 2.14766 4.84796 2.32267 5.1032C2.49768 5.35844 2.72953 5.56958 2.99998 5.72001V12.28C2.72953 12.4304 2.49768 12.6416 2.32267 12.8968C2.14766 13.1521 2.03427 13.4444 1.99143 13.7509C1.94858 14.0574 1.97745 14.3697 2.07575 14.6631C2.17406 14.9566 2.33912 15.2232 2.55795 15.442C2.77679 15.6609 3.04342 15.8259 3.33686 15.9242C3.63031 16.0225 3.94257 16.0514 4.24906 16.0086C4.55556 15.9657 4.84793 15.8523 5.10317 15.6773C5.3584 15.5023 5.56955 15.2705 5.71998 15H8.99998V18.28C8.72953 18.4304 8.49768 18.6416 8.32267 18.8968C8.14766 19.1521 8.03427 19.4444 7.99143 19.7509C7.94858 20.0574 7.97745 20.3697 8.07575 20.6631C8.17406 20.9566 8.33912 21.2232 8.55795 21.442C8.77679 21.6609 9.04342 21.8259 9.33686 21.9242C9.63031 22.0225 9.94257 22.0514 10.2491 22.0086C10.5556 21.9657 10.8479 21.8523 11.1032 21.6773C11.3584 21.5023 11.5695 21.2705 11.72 21H18.28C18.4304 21.2705 18.6416 21.5023 18.8968 21.6773C19.152 21.8523 19.4444 21.9657 19.7509 22.0086C20.0574 22.0514 20.3697 22.0225 20.6631 21.9242C20.9566 21.8259 21.2232 21.6609 21.442 21.442C21.6608 21.2232 21.8259 20.9566 21.9242 20.6631C22.0225 20.3697 22.0514 20.0574 22.0085 19.7509C21.9657 19.4444 21.8523 19.1521 21.6773 18.8968C21.5023 18.6416 21.2704 18.4304 21 18.28ZM7.99998 10C8.00209 10.349 8.0955 10.6914 8.27093 10.9932C8.44636 11.2949 8.69771 11.5455 8.99998 11.72V13H5.71998C5.54956 12.6993 5.30071 12.4504 4.99998 12.28V5.72001C5.30071 5.54959 5.54956 5.30074 5.71998 5.00001H12.28C12.4504 5.30074 12.6993 5.54959 13 5.72001V9.00001H11.72C11.4973 8.6246 11.1579 8.33236 10.7536 8.16787C10.3492 8.00338 9.90221 7.97568 9.48068 8.08899C9.05914 8.20231 8.68626 8.45042 8.41891 8.79546C8.15156 9.14051 8.00444 9.56354 7.99998 10ZM13 11V12.28C12.6993 12.4504 12.4504 12.6993 12.28 13H11V11.72C11.3007 11.5496 11.5496 11.3007 11.72 11H13ZM19 18.28C18.6993 18.4504 18.4504 18.6993 18.28 19H11.72C11.5496 18.6993 11.3007 18.4504 11 18.28V15H12.28C12.4304 15.2705 12.6416 15.5023 12.8968 15.6773C13.152 15.8523 13.4444 15.9657 13.7509 16.0086C14.0574 16.0514 14.3697 16.0225 14.6631 15.9242C14.9565 15.8259 15.2232 15.6609 15.442 15.442C15.6608 15.2232 15.8259 14.9566 15.9242 14.6631C16.0225 14.3697 16.0514 14.0574 16.0085 13.7509C15.9657 13.4444 15.8523 13.1521 15.6773 12.8968C15.5023 12.6416 15.2704 12.4304 15 12.28V11H18.28C18.4504 11.3007 18.6993 11.5496 19 11.72V18.28Z" fill="#26282B"/>
</svg>
