<svg width="24" height="24" viewBox="0 0 24 24" fill="none" xmlns="http://www.w3.org/2000/svg">
<path d="M11.9707 5.00043C8.32717 5.00043 8.32717 10.1225 8.32717 11.8578C8.32717 13.811 8.32717 19.0004 11.9873 19.0004C15.6416 19.0004 15.6416 13.8383 15.6416 11.895C15.6416 7.31976 14.4063 5.00043 11.9707 5.00043ZM11.9873 17.0004C10.8858 17.0004 10.3272 15.27 10.3272 11.8051C10.3272 9.61371 10.6123 7.00043 11.9707 7.00043C13.4248 7.00043 13.6416 10.0668 13.6416 11.895C13.6416 15.2827 13.085 17.0004 11.9873 17.0004ZM11.9883 1.00043C5.93654 1.00043 1.71002 5.48187 1.71002 11.8989C1.71002 17.3559 5.5567 23.0004 11.9952 23.0004C18.4288 23.0004 22.2735 17.3559 22.2735 11.8989C22.2735 5.48187 18.044 1.00043 11.9883 1.00043H11.9883ZM11.9952 21.0004C6.80863 21.0004 3.71 16.3725 3.71 11.8989C3.71 6.5766 7.03715 3.00043 11.9883 3.00043C16.9444 3.00043 20.2735 6.5766 20.2735 11.8989C20.2735 16.3725 17.1768 21.0004 11.9951 21.0004H11.9952Z" fill="#26282B"/>
</svg>
