<svg width="24" height="24" viewBox="0 0 24 24" fill="none" xmlns="http://www.w3.org/2000/svg">
<path d="M19.79 7.13C19.6958 7.01082 19.5757 6.91466 19.4388 6.84882C19.302 6.78298 19.1519 6.74918 19 6.75H7.99998V6.25C8.00123 5.81468 8.14447 5.39165 8.40797 5.04514C8.67147 4.69862 9.04083 4.44754 9.45998 4.33C9.72926 4.58983 10.0859 4.73963 10.46 4.75H11.46C11.8578 4.75 12.2393 4.59196 12.5206 4.31066C12.8019 4.02936 12.96 3.64782 12.96 3.25C12.96 2.85218 12.8019 2.47064 12.5206 2.18934C12.2393 1.90804 11.8578 1.75 11.46 1.75H10.46C10.2345 1.75031 10.0121 1.80177 9.80946 1.9005C9.6068 1.99924 9.42918 2.14267 9.28998 2.32C8.36825 2.48625 7.53408 2.97067 6.93286 3.68884C6.33164 4.40702 6.0015 5.31339 5.99998 6.25V6.75H4.99998C4.84809 6.74918 4.69801 6.78298 4.56112 6.84882C4.42424 6.91466 4.30416 7.01082 4.20998 7.13C4.10981 7.24874 4.03867 7.38918 4.00222 7.5402C3.96577 7.69121 3.965 7.84864 3.99998 8L4.61998 10.49C4.76802 11.0635 5.08253 11.5804 5.52387 11.9755C5.96521 12.3705 6.51362 12.6261 7.09998 12.71L7.87998 19.71H6.99998C6.73477 19.71 6.48041 19.8154 6.29288 20.0029C6.10534 20.1904 5.99998 20.4448 5.99998 20.71C5.99998 20.9752 6.10534 21.2296 6.29288 21.4171C6.48041 21.6046 6.73477 21.71 6.99998 21.71H17C17.2652 21.71 17.5196 21.6046 17.7071 21.4171C17.8946 21.2296 18 20.9752 18 20.71C18 20.4448 17.8946 20.1904 17.7071 20.0029C17.5196 19.8154 17.2652 19.71 17 19.71H16.12L16.9 12.71C17.4822 12.6199 18.025 12.3604 18.4607 11.9639C18.8964 11.5673 19.2057 11.0512 19.35 10.48L20 8C20.035 7.84864 20.0342 7.69121 19.9977 7.5402C19.9613 7.38918 19.8902 7.24874 19.79 7.13ZM14.1 19.75H9.89998L9.11998 12.75H14.88L14.1 19.75ZM17.41 10C17.3552 10.2219 17.2261 10.4183 17.0442 10.5566C16.8622 10.6949 16.6384 10.7667 16.41 10.76H7.55998C7.33155 10.7667 7.10773 10.6949 6.92578 10.5566C6.74383 10.4183 6.61473 10.2219 6.55998 10L6.27998 8.75H17.72L17.41 10Z" fill="#26282B"/>
</svg>
