<svg width="15" height="8" viewBox="0 0 15 8" fill="none" xmlns="http://www.w3.org/2000/svg">
<path d="M1.5 3C2.32843 3 3 2.32843 3 1.5C3 0.671573 2.32843 0 1.5 0C0.671573 0 0 0.671573 0 1.5C0 2.32843 0.671573 3 1.5 3Z" fill="#26282B"/>
<path d="M1.5 8C2.32843 8 3 7.32843 3 6.5C3 5.67157 2.32843 5 1.5 5C0.671573 5 0 5.67157 0 6.5C0 7.32843 0.671573 8 1.5 8Z" fill="#26282B"/>
<path d="M7.5 3C8.32843 3 9 2.32843 9 1.5C9 0.671573 8.32843 0 7.5 0C6.67157 0 6 0.671573 6 1.5C6 2.32843 6.67157 3 7.5 3Z" fill="#26282B"/>
<path d="M7.5 8C8.32843 8 9 7.32843 9 6.5C9 5.67157 8.32843 5 7.5 5C6.67157 5 6 5.67157 6 6.5C6 7.32843 6.67157 8 7.5 8Z" fill="#26282B"/>
<path d="M13.5 3C14.3284 3 15 2.32843 15 1.5C15 0.671573 14.3284 0 13.5 0C12.6716 0 12 0.671573 12 1.5C12 2.32843 12.6716 3 13.5 3Z" fill="#26282B"/>
<path d="M13.5 8C14.3284 8 15 7.32843 15 6.5C15 5.67157 14.3284 5 13.5 5C12.6716 5 12 5.67157 12 6.5C12 7.32843 12.6716 8 13.5 8Z" fill="#26282B"/>
</svg>
