<svg width="24" height="24" viewBox="0 0 24 24" fill="none" xmlns="http://www.w3.org/2000/svg">
<path d="M11.62 7.91994C11.7402 7.97118 11.8693 7.99836 12 7.99994H18C18.2652 7.99994 18.5196 8.1053 18.7071 8.29283C18.8946 8.48037 19 8.73472 19 8.99994V14.3399C19 14.6052 19.1054 14.8595 19.2929 15.047C19.4804 15.2346 19.7348 15.3399 20 15.3399C20.2652 15.3399 20.5196 15.2346 20.7071 15.047C20.8946 14.8595 21 14.6052 21 14.3399V8.99994C21 8.20429 20.6839 7.44123 20.1213 6.87862C19.5587 6.31601 18.7957 5.99994 18 5.99994H14.41L16.71 3.70994C16.8032 3.6167 16.8772 3.50601 16.9277 3.38419C16.9781 3.26237 17.0041 3.1318 17.0041 2.99994C17.0041 2.86808 16.9781 2.73751 16.9277 2.61569C16.8772 2.49387 16.8032 2.38318 16.71 2.28994C16.6168 2.1967 16.5061 2.12274 16.3843 2.07228C16.2624 2.02182 16.1319 1.99585 16 1.99585C15.7337 1.99585 15.4783 2.10164 15.29 2.28994L11.29 6.28994C11.199 6.38505 11.1276 6.49719 11.08 6.61994C10.98 6.8634 10.98 7.13648 11.08 7.37994C11.1815 7.62429 11.3757 7.81847 11.62 7.91994ZM21.71 20.2899L3.71 2.28994C3.5217 2.10164 3.2663 1.99585 3 1.99585C2.7337 1.99585 2.47831 2.10164 2.29 2.28994C2.1017 2.47824 1.99591 2.73364 1.99591 2.99994C1.99591 3.26624 2.1017 3.52164 2.29 3.70994L4.83 6.23994C4.28776 6.4696 3.82509 6.85377 3.49968 7.34456C3.17426 7.83536 3.00048 8.41107 3 8.99994V16.9999C3 17.7956 3.31607 18.5587 3.87868 19.1213C4.44129 19.6839 5.20435 19.9999 6 19.9999V20.9999C6 21.2652 6.10536 21.5195 6.2929 21.707C6.48043 21.8946 6.73479 21.9999 7 21.9999C7.26522 21.9999 7.51957 21.8946 7.70711 21.707C7.89465 21.5195 8 21.2652 8 20.9999V19.9999H16V20.9999C16 21.2652 16.1054 21.5195 16.2929 21.707C16.4804 21.8946 16.7348 21.9999 17 21.9999C17.2652 21.9999 17.5196 21.8946 17.7071 21.707C17.8946 21.5195 18 21.2652 18 20.9999V19.9999C18.1781 19.9954 18.3554 19.9753 18.53 19.9399L20.29 21.7099C20.383 21.8037 20.4936 21.8781 20.6154 21.9288C20.7373 21.9796 20.868 22.0057 21 22.0057C21.132 22.0057 21.2627 21.9796 21.3846 21.9288C21.5064 21.8781 21.617 21.8037 21.71 21.7099C21.8037 21.617 21.8781 21.5064 21.9289 21.3845C21.9797 21.2627 22.0058 21.132 22.0058 20.9999C22.0058 20.8679 21.9797 20.7372 21.9289 20.6154C21.8781 20.4935 21.8037 20.3829 21.71 20.2899ZM6 17.9999C5.73479 17.9999 5.48043 17.8946 5.2929 17.707C5.10536 17.5195 5 17.2652 5 16.9999V8.99994C5 8.73472 5.10536 8.48037 5.2929 8.29283C5.48043 8.1053 5.73479 7.99994 6 7.99994H6.59L16.59 17.9999H6Z" fill="#26282B"/>
</svg>
