<svg width="24" height="24" viewBox="0 0 24 24" fill="none" xmlns="http://www.w3.org/2000/svg">
<path d="M20.59 6.89997C20.5691 6.86502 20.5457 6.8316 20.52 6.79997C19.2266 4.67125 17.1852 3.10187 14.7956 2.39903C12.4059 1.69619 9.83996 1.91048 7.59999 2.99997H7.52999C5.98455 3.79582 4.67327 4.98077 3.72546 6.43797C2.77766 7.89516 2.22608 9.57425 2.12513 11.3096C2.02417 13.045 2.37733 14.7767 3.14978 16.334C3.92222 17.8913 5.08726 19.2203 6.52999 20.19L6.85999 20.39L6.95999 20.46C8.47062 21.4179 10.212 21.9499 12 22H12.21C13.9563 21.9615 15.6621 21.4662 17.1575 20.5636C18.6529 19.6609 19.8858 18.3822 20.7334 16.8549C21.5811 15.3276 22.0138 13.6049 21.9886 11.8583C21.9635 10.1117 21.4813 8.40223 20.59 6.89997ZM19 8.05997C19.2671 8.52257 19.485 9.01192 19.65 9.51997C18.6808 9.20471 17.6691 9.03947 16.65 9.02997C16.5476 9.01001 16.4424 9.01001 16.34 9.02997C15.1114 9.04626 13.8969 9.29391 12.76 9.75997C12.0671 9.32573 11.4462 8.78588 10.92 8.15997C12.1422 7.44325 13.53 7.05712 14.9467 7.03959C16.3635 7.02205 17.7604 7.37372 19 8.05997ZM12 3.99997C13.405 3.99271 14.7863 4.3622 16 5.06997C15.6685 5.02514 15.3345 5.00175 15 4.99997C13.1646 5.00348 11.3656 5.51205 9.79999 6.46997C9.50463 5.85331 9.28954 5.20133 9.15999 4.52997C10.0662 4.18068 11.0288 4.00102 12 3.99997ZM5.99999 6.70997C6.39904 6.26643 6.84498 5.86744 7.32999 5.51997C7.66389 6.7948 8.24895 7.99014 9.05087 9.0359C9.85279 10.0817 10.8554 10.9568 12 11.61C11.9287 12.6102 11.6673 13.5876 11.23 14.49C9.69798 13.9245 8.3757 12.9038 7.44078 11.5649C6.50586 10.226 6.00308 8.63299 5.99999 6.99997V6.70997ZM3.99999 12C4.00178 11.1965 4.12311 10.3977 4.35999 9.62997C4.75533 11.0818 5.47321 12.4257 6.46013 13.5615C7.44705 14.6973 8.67757 15.5958 10.06 16.19C9.26409 17.1226 8.26055 17.8556 7.12999 18.33C6.1587 17.5847 5.37141 16.6264 4.82876 15.529C4.28611 14.4316 4.00258 13.2242 3.99999 12ZM11.86 20C10.9684 19.987 10.0856 19.8213 9.24999 19.51C10.5617 18.7015 11.6674 17.5991 12.48 16.29C13.4008 14.8224 13.9246 13.1408 14 11.41C14.5771 11.2203 15.1745 11.0994 15.78 11.05C16.2072 12.7653 16.0543 14.5737 15.3451 16.1929C14.6359 17.8121 13.4104 19.1508 11.86 20ZM16.08 18.88C17.3291 17.1741 18.0016 15.1143 18 13C17.9956 12.3692 17.9353 11.7401 17.82 11.12C18.572 11.2529 19.3021 11.4884 19.99 11.82V12C19.989 13.3857 19.6282 14.7473 18.9428 15.9516C18.2574 17.1559 17.2709 18.1615 16.08 18.87V18.88Z" fill="#26282B"/>
</svg>
