<svg width="24" height="24" viewBox="0 0 24 24" fill="none" xmlns="http://www.w3.org/2000/svg">
<path d="M17 8.61008L16 2.84008C15.9617 2.60346 15.8396 2.38848 15.656 2.2343C15.4725 2.08012 15.2397 1.997 15 2.00008H8.99999C8.7603 1.997 8.52747 2.08012 8.34392 2.2343C8.16038 2.38848 8.03832 2.60346 7.99999 2.84008L6.99999 8.61008C6.31635 9.60842 5.95053 10.7901 5.95053 12.0001C5.95053 13.2101 6.31635 14.3917 6.99999 15.3901L7.99999 21.1601C8.03832 21.3967 8.16038 21.6117 8.34392 21.7659C8.52747 21.92 8.7603 22.0032 8.99999 22.0001H15C15.2397 22.0032 15.4725 21.92 15.656 21.7659C15.8396 21.6117 15.9617 21.3967 16 21.1601L17 15.3901C17.6836 14.3917 18.0494 13.2101 18.0494 12.0001C18.0494 10.7901 17.6836 9.60842 17 8.61008ZM9.84999 4.00008H14.15L14.59 6.59008C13.7814 6.20314 12.8964 6.00228 12 6.00228C11.1036 6.00228 10.2186 6.20314 9.40999 6.59008L9.84999 4.00008ZM14.15 20.0001H9.84999L9.40999 17.4101C10.2186 17.797 11.1036 17.9979 12 17.9979C12.8964 17.9979 13.7814 17.797 14.59 17.4101L14.15 20.0001ZM12 16.0001C11.2089 16.0001 10.4355 15.7655 9.77771 15.326C9.11991 14.8864 8.60722 14.2617 8.30447 13.5308C8.00172 12.7999 7.9225 11.9956 8.07684 11.2197C8.23119 10.4438 8.61215 9.73107 9.17156 9.17166C9.73097 8.61225 10.4437 8.23128 11.2196 8.07694C11.9955 7.9226 12.7998 8.00181 13.5307 8.30456C14.2616 8.60732 14.8863 9.12001 15.3259 9.7778C15.7654 10.4356 16 11.209 16 12.0001C16 13.0609 15.5786 14.0784 14.8284 14.8285C14.0783 15.5787 13.0609 16.0001 12 16.0001Z" fill="#26282B"/>
</svg>
