<svg width="20" height="20" viewBox="0 0 20 20" fill="none" xmlns="http://www.w3.org/2000/svg">
<g clip-path="url(#clip0_77_116093)">
<path d="M14.5152 11.9842C14.2681 11.8601 13.0499 11.26 12.8228 11.178C12.5958 11.095 12.4307 11.054 12.2657 11.302C12.1007 11.5491 11.6256 12.1082 11.4805 12.2732C11.3365 12.4383 11.1915 12.4583 10.9444 12.3342C10.2143 12.0436 9.54041 11.6279 8.95297 11.106C8.41117 10.6052 7.94668 10.0267 7.57466 9.3896C7.43063 9.14154 7.55966 9.00751 7.68369 8.88449C7.79471 8.77346 7.93174 8.59542 8.05477 8.45039C8.15667 8.32518 8.24019 8.18609 8.30282 8.0373C8.33578 7.96893 8.35113 7.8934 8.34746 7.81758C8.34379 7.74177 8.32123 7.66808 8.28182 7.6032C8.21981 7.47918 7.7247 6.25991 7.51865 5.7638C7.31761 5.28169 7.11356 5.34671 6.96053 5.33871C6.8165 5.3317 6.65146 5.3297 6.48643 5.3297C6.36088 5.3332 6.23742 5.36265 6.12381 5.41618C6.0102 5.46972 5.9089 5.54618 5.82628 5.64077C5.54624 5.90597 5.32451 6.22658 5.17521 6.58219C5.0259 6.9378 4.9523 7.32061 4.95909 7.70623C5.0394 8.64067 5.39086 9.53131 5.97031 10.2688C7.03246 11.8612 8.4905 13.15 10.2012 14.0086C10.6627 14.2069 11.1341 14.3811 11.6136 14.5307C12.119 14.6842 12.6533 14.7174 13.1739 14.6277C13.5187 14.5579 13.8452 14.4173 14.1329 14.2148C14.4206 14.0124 14.6631 13.7525 14.8453 13.4515C15.0077 13.0813 15.0578 12.6716 14.9893 12.2732C14.9283 12.1692 14.7632 12.1082 14.5152 11.9842ZM17.0077 2.90317C15.3073 1.20315 13.047 0.178982 10.6477 0.0213432C8.24843 -0.136296 5.87359 0.583335 3.96536 2.04626C2.05712 3.50919 0.745522 5.61571 0.274754 7.97365C-0.196014 10.3316 0.206127 12.7803 1.40631 14.8638L0 19.9999L5.25515 18.6226C6.70863 19.414 8.33721 19.8288 9.9922 19.8289H9.9962C11.9567 19.8279 13.873 19.2458 15.5028 18.1562C17.1327 17.0666 18.403 15.5184 19.1533 13.7071C19.9037 11.8959 20.1003 9.90284 19.7184 7.97987C19.3365 6.0569 18.3932 4.29026 17.0077 2.90316V2.90317ZM14.3742 16.8952C13.062 17.7177 11.5448 18.1541 9.9962 18.1545H9.9922C8.51677 18.1544 7.06854 17.7575 5.79927 17.0053L5.49821 16.8272L2.37952 17.6454L3.21171 14.6047L3.01666 14.2927C2.15102 12.9122 1.71416 11.3061 1.76132 9.67731C1.80849 8.04857 2.33756 6.47039 3.28164 5.14233C4.22572 3.81428 5.54241 2.79599 7.0652 2.21624C8.58799 1.63648 10.2485 1.52129 11.8368 1.88524C13.425 2.24919 14.8697 3.07593 15.9881 4.26092C17.1065 5.4459 17.8484 6.93592 18.12 8.54255C18.3916 10.1492 18.1807 11.8003 17.5139 13.287C16.8472 14.7738 15.7545 16.0294 14.3742 16.8952Z" fill="#26282B"/>
</g>
<defs>
<clipPath id="clip0_77_116093">
<rect width="19.904" height="19.9956" fill="white"/>
</clipPath>
</defs>
</svg>
